<svg xmlns="http://www.w3.org/2000/svg" width="587.522" height="451.478" viewBox="0 0 155.448 119.453"><defs><path id="q" d="M132.44 1881.194h231.545v58.562H132.44z"/><path id="p" d="M48.652 1794.702h145.955v68.473H48.652z"/><path id="o" d="M21.623 1703.706h126.134v51.354H21.623z"/><path id="n" d="M420.746 1784.792H546.88v45.048H420.746z"/><path id="m" d="M136.044 1718.121h198.21v46.85h-198.21z"/><path id="l" d="M60.663 1652.661h121.294v64.56H60.663z"/><path id="c" d="M208.322 1496.481H330.64v45.869H208.322z"/><path id="b" d="M201.952 1402.831h125.503v42.684H201.952z"/><path id="a" d="M84.73 1437.233h77.723v50.966H84.73z"/><path id="d" d="M201.952 1402.831h125.503v42.684H201.952z"/><path id="e" d="M201.952 1402.831h125.503v42.684H201.952z"/><path id="f" d="M201.952 1402.831h125.503v42.684H201.952z"/><path id="g" d="M201.952 1402.831h125.503v42.684H201.952z"/><path id="h" d="M201.952 1402.831h125.503v42.684H201.952z"/><path id="i" d="M201.952 1402.831h125.503v42.684H201.952z"/><marker id="j" markerHeight="1" markerWidth="1" orient="auto-start-reverse" preserveAspectRatio="xMidYMid" refX="0" refY="0" style="overflow:visible" viewBox="0 0 1 1"><path d="M3-3 0 0l3 3" style="fill:none;stroke:context-stroke;stroke-width:1;stroke-linecap:butt" transform="rotate(180,0.125,0)"/></marker><marker id="k" markerHeight="1" markerWidth="1" orient="auto-start-reverse" preserveAspectRatio="xMidYMid" refX="0" refY="0" style="overflow:visible" viewBox="0 0 1 1"><path d="M3-3 0 0l3 3" style="fill:none;stroke:context-stroke;stroke-width:1;stroke-linecap:butt" transform="rotate(180,0.125,0)"/></marker></defs><path d="M2.622 365.195h155.184v119.189H2.622z" style="fill:#fff;stroke:#fff;stroke-width:.264583;stroke-linejoin:round" transform="translate(-2.4898628,-365.06227)"/><path d="M34.565 369.247h122.049v111.084H34.565z" style="fill:#efa;stroke:#89a02c;stroke-width:.264583;stroke-linejoin:round" transform="translate(-2.4898628,-365.06227)"/><path d="M115.218 372.039h39.753v106.017h-39.753zM37.157 380.268h72.649v79.558H37.157z" style="fill:#eef4d7;stroke:#89a02c;stroke-width:.264583;stroke-linejoin:round" transform="translate(-2.4898628,-365.06227)"/><path d="M3.635 384.863h28.45v20.462H3.635z" style="fill:#eed7f4;stroke:#d4aa00;stroke-width:.264583;stroke-linejoin:round" transform="translate(-2.4898628,-365.06227)"/><path d="M5.351 386.272h24.874v12.358H5.351z" style="fill:#fff6d5;stroke:#d4aa00;stroke-width:.264583;stroke-linejoin:round" transform="translate(-2.4898628,-365.06227)"/><path d="M39.67 414.153h15.339v10.451H39.67z" style="fill:#d5f6ff;stroke:#1a1a1a;stroke-width:.264583;stroke-linejoin:round" transform="translate(-2.4898628,-365.06227)"/><path d="M70.979 402.771h31.015v10.451H70.979zM71.186 384.948h31.015v10.451H71.186z" style="fill:#e6e6e6;stroke:#1a1a1a;stroke-width:.264583;stroke-linejoin:round" transform="translate(-2.4898628,-365.06227)"/><text xml:space="preserve" style="font-size:14.6667px;line-height:normal;font-family:&quot;Liberation Mono&quot;;-inkscape-font-specification:&quot;Liberation Mono&quot;;text-align:center;text-decoration-color:#000;white-space:pre;shape-inside:url(#a);display:inline;fill:#000;stroke-width:1;-inkscape-stroke:none;stop-color:#000" transform="translate(-2.4898628,-365.06227) matrix(0.26458333,0,0,0.26458333,14.21291,34.683083)"><tspan x="101.588" y="1450.283">entry
</tspan><tspan x="105.989" y="1468.616">node</tspan></text><text xml:space="preserve" style="font-size:14.6667px;line-height:normal;font-family:&quot;Liberation Mono&quot;;-inkscape-font-specification:&quot;Liberation Mono&quot;;text-align:center;text-decoration-color:#000;white-space:pre;shape-inside:url(#b);display:inline;fill:#000;stroke-width:1;-inkscape-stroke:none;stop-color:#000" transform="translate(-2.4898628,-365.06227) matrix(0.26458333,0,0,0.26458333,16.404171,14.287503)"><tspan x="211.894" y="1415.882">processing 1
</tspan><tspan x="247.1" y="1434.216">node</tspan></text><text xml:space="preserve" style="font-size:14.6667px;line-height:normal;font-family:&quot;Liberation Mono&quot;;-inkscape-font-specification:&quot;Liberation Mono&quot;;text-align:center;text-decoration-color:#000;white-space:pre;shape-inside:url(#c);display:inline;fill:#000;stroke-width:1;-inkscape-stroke:none;stop-color:#000" transform="translate(-2.4898628,-365.06227) matrix(0.26458333,0,0,0.26458333,14.381468,7.5451623)"><tspan x="216.673" y="1509.531">processing 2
</tspan><tspan x="251.879" y="1527.864">node</tspan></text><path d="M121.68 376.469h25.621v10.451H121.68z" style="fill:#eed7f4;stroke:#1a1a1a;stroke-width:.264583;stroke-linejoin:round" transform="translate(-2.4898628,-365.06227)"/><text xml:space="preserve" style="font-size:14.6667px;line-height:normal;font-family:&quot;Liberation Mono&quot;;-inkscape-font-specification:&quot;Liberation Mono&quot;;text-align:center;text-decoration-color:#000;white-space:pre;shape-inside:url(#d);display:inline;fill:#000;stroke-width:1;-inkscape-stroke:none;stop-color:#000" transform="translate(-2.4898628,-365.06227) matrix(0.26458333,0,0,0.26458333,64.201883,5.8086793)"><tspan x="225.097" y="1415.882">DB backup
</tspan><tspan x="247.1" y="1434.216">node</tspan></text><path d="M121.68 395.122h25.621v10.451H121.68z" style="fill:#ffd5e5;stroke:#1a1a1a;stroke-width:.264583;stroke-linejoin:round" transform="translate(-2.4898628,-365.06227)"/><text xml:space="preserve" style="font-size:14.6667px;line-height:normal;font-family:&quot;Liberation Mono&quot;;-inkscape-font-specification:&quot;Liberation Mono&quot;;text-align:center;text-decoration-color:#000;white-space:pre;shape-inside:url(#e);display:inline;fill:#000;stroke-width:1;-inkscape-stroke:none;stop-color:#000" transform="translate(-2.4898628,-365.06227) matrix(0.26458333,0,0,0.26458333,64.20188,24.461395)"><tspan x="229.497" y="1415.882">DB write
</tspan><tspan x="247.1" y="1434.216">node</tspan></text><path d="M121.68 412.981h25.621v10.451H121.68z" style="fill:#d7f4e3;stroke:#1a1a1a;stroke-width:.264583;stroke-linejoin:round" transform="translate(-2.4898628,-365.06227)"/><text xml:space="preserve" style="font-size:14.6667px;line-height:normal;font-family:&quot;Liberation Mono&quot;;-inkscape-font-specification:&quot;Liberation Mono&quot;;text-align:center;text-decoration-color:#000;white-space:pre;shape-inside:url(#f);display:inline;fill:#000;stroke-width:1;-inkscape-stroke:none;stop-color:#000" transform="translate(-2.4898628,-365.06227) matrix(0.26458333,0,0,0.26458333,64.20188,42.320359)"><tspan x="225.097" y="1415.882">DB read 1
</tspan><tspan x="247.1" y="1434.216">node</tspan></text><path d="M121.68 426.764h25.621v10.451H121.68z" style="fill:#d7f4e3;stroke:#1a1a1a;stroke-width:.264583;stroke-linejoin:round" transform="translate(-2.4898628,-365.06227)"/><text xml:space="preserve" style="font-size:14.6667px;line-height:normal;font-family:&quot;Liberation Mono&quot;;-inkscape-font-specification:&quot;Liberation Mono&quot;;text-align:center;text-decoration-color:#000;white-space:pre;shape-inside:url(#g);display:inline;fill:#000;stroke-width:1;-inkscape-stroke:none;stop-color:#000" transform="translate(-2.4898628,-365.06227) matrix(0.26458333,0,0,0.26458333,64.20188,56.103898)"><tspan x="225.097" y="1415.882">DB read 2
</tspan><tspan x="247.1" y="1434.216">node</tspan></text><path d="M121.68 440.971h25.621v10.451H121.68z" style="fill:#d7f4e3;stroke:#1a1a1a;stroke-width:.264583;stroke-linejoin:round" transform="translate(-2.4898628,-365.06227)"/><text xml:space="preserve" style="font-size:14.6667px;line-height:normal;font-family:&quot;Liberation Mono&quot;;-inkscape-font-specification:&quot;Liberation Mono&quot;;text-align:center;text-decoration-color:#000;white-space:pre;shape-inside:url(#h);display:inline;fill:#000;stroke-width:1;-inkscape-stroke:none;stop-color:#000" transform="translate(-2.4898628,-365.06227) matrix(0.26458333,0,0,0.26458333,64.20188,70.310676)"><tspan x="225.097" y="1415.882">DB read 3
</tspan><tspan x="247.1" y="1434.216">node</tspan></text><path d="M121.873 454.424h25.621v10.451h-25.621z" style="fill:#d7f4e3;stroke:#1a1a1a;stroke-width:.264583;stroke-linejoin:round" transform="translate(-2.4898628,-365.06227)"/><text xml:space="preserve" style="font-size:14.6667px;line-height:normal;font-family:&quot;Liberation Mono&quot;;-inkscape-font-specification:&quot;Liberation Mono&quot;;text-align:center;text-decoration-color:#000;white-space:pre;shape-inside:url(#i);display:inline;fill:#000;stroke-width:1;-inkscape-stroke:none;stop-color:#000" transform="translate(-2.4898628,-365.06227) matrix(0.26458333,0,0,0.26458333,64.395022,83.763622)"><tspan x="225.097" y="1415.882">DB read 4
</tspan><tspan x="247.1" y="1434.216">node</tspan></text><path d="M134.49 386.92v8.202" style="fill:#e6e6e6;stroke:#f60;stroke-width:.264583;stroke-linejoin:round;marker-start:url(#j)" transform="translate(-2.4898628,-365.06227)"/><path d="m55.009 414.153 16.177-18.755" style="fill:#e6e6e6;stroke:#f60;stroke-width:.264583;stroke-linejoin:round;marker-end:url(#j)" transform="translate(-2.4898628,-365.06227)"/><path d="m55.009 419.378 15.97-6.156" style="fill:#e6e6e6;stroke:#f60;stroke-width:.264583;stroke-linejoin:round;marker-end:url(#j)" transform="translate(-2.4898628,-365.06227)"/><path d="m55.009 424.604 66.865 35.045" style="fill:#e6e6e6;stroke:#f60;stroke-width:.264583;stroke-linejoin:round;marker-end:url(#j)" transform="translate(-2.4898628,-365.06227)"/><path d="m54.961 421.84 66.72 24.356" style="fill:#e6e6e6;stroke:#f60;stroke-width:.264583;stroke-linejoin:round;marker-end:url(#j)" transform="translate(-2.4898628,-365.06227)"/><path d="m101.994 407.996 19.686 23.994" style="fill:#e6e6e6;stroke:#f60;stroke-width:.264583;stroke-linejoin:round;marker-end:url(#j)" transform="translate(-2.4898628,-365.06227)"/><path d="m121.68 418.206-19.48-28.033 19.48 10.174" style="fill:none;stroke:#f60;stroke-width:.264583;stroke-linejoin:round;marker-start:url(#j);marker-end:url(#j)" transform="translate(-2.4898628,-365.06227)"/><path d="m101.994 407.996 19.554-5.357" style="fill:none;stroke:#f60;stroke-width:.264583;stroke-linejoin:round;marker-end:url(#j)" transform="translate(-2.4898628,-365.06227)"/><path d="M134.49 405.572v7.409" style="fill:none;stroke:#f60;stroke-width:.264583;stroke-linejoin:round;marker-end:url(#j)" transform="translate(-2.4898628,-365.06227)"/><path d="M147.301 400.347h5.217v31.564l-5.217.079" style="fill:none;stroke:#f60;stroke-width:.264583;stroke-linejoin:round;marker-end:url(#j)" transform="translate(-2.4898628,-365.06227)"/><path d="m152.518 431.91.12 14.286H147.3" style="fill:none;stroke:#f60;stroke-width:.264583;stroke-linejoin:round;marker-end:url(#j)" transform="translate(-2.4898628,-365.06227)"/><path d="m152.637 446.196.12 14.286h-5.337" style="fill:none;stroke:#f60;stroke-width:.264583;stroke-linejoin:round;marker-end:url(#k)" transform="translate(-2.4898628,-365.06227)"/><path d="M39.49 419.378H12.603" style="fill:#d5f6ff;stroke:#f60;stroke-width:.264582;stroke-linejoin:round;marker-start:url(#j)" transform="translate(-2.4898628,-365.06227)"/><text xml:space="preserve" style="font-size:14.6667px;line-height:normal;font-family:&quot;Liberation Mono&quot;;-inkscape-font-specification:&quot;Liberation Mono&quot;;text-align:center;text-decoration-color:#000;white-space:pre;shape-inside:url(#l);display:inline;fill:#a40;stroke-width:1;-inkscape-stroke:none;stop-color:#000" transform="translate(-2.4898628,-365.06227) matrix(0.26458333,0,0,0.26458333,-9.1495946,-22.266147)"><tspan x="86.104" y="1665.71">internet</tspan></text><text xml:space="preserve" style="font-size:14.6667px;line-height:normal;font-family:&quot;Liberation Mono&quot;;-inkscape-font-specification:&quot;Liberation Mono&quot;;text-align:center;text-decoration-color:#000;white-space:pre;shape-inside:url(#m);display:inline;fill:#000;stroke-width:1;-inkscape-stroke:none;stop-color:#000" transform="translate(-2.4898628,-365.06227) matrix(0.26458333,0,0,0.26458333,11.989921,-0.95351064)"><tspan x="195.543" y="1731.171">stateless</tspan></text><text xml:space="preserve" style="font-size:14.6667px;line-height:normal;font-family:&quot;Liberation Mono&quot;;-inkscape-font-specification:&quot;Liberation Mono&quot;;text-align:center;text-decoration-color:#000;white-space:pre;shape-inside:url(#n);display:inline;fill:#000;stroke-width:1;-inkscape-stroke:none;stop-color:#000" transform="translate(-2.4898628,-365.06227) matrix(0.26458333,0,0,0.26458333,7.9375002,0)"><tspan x="448.607" y="1797.841">DB state</tspan></text><text xml:space="preserve" style="font-size:14.6667px;line-height:normal;font-family:&quot;Liberation Mono&quot;;-inkscape-font-specification:&quot;Liberation Mono&quot;;text-align:center;text-decoration-color:#000;white-space:pre;shape-inside:url(#o);display:inline;fill:#000;stroke-width:1;-inkscape-stroke:none;stop-color:#000" transform="translate(-2.4898628,-365.06227) matrix(0.26458333,0,0,0.26458333,-4.7388211,-50.850532)"><tspan x="53.884" y="1716.755">browser</tspan></text><text xml:space="preserve" style="font-size:14.6667px;line-height:normal;font-family:&quot;Liberation Mono&quot;;-inkscape-font-specification:&quot;Liberation Mono&quot;;text-align:center;text-decoration-color:#000;white-space:pre;shape-inside:url(#p);display:inline;fill:#000;stroke-width:1;-inkscape-stroke:none;stop-color:#000" transform="translate(-2.4898628,-365.06227) matrix(0.26458333,0,0,0.26458333,-14.273929,-87.246224)"><tspan x="86.423" y="1807.753">frontend
</tspan><tspan x="77.622" y="1826.087">(stateful)</tspan></text><path d="m12.568 405.325.047 14.053" style="fill:#eed7f4;stroke:#f60;stroke-width:.264583;stroke-linejoin:round" transform="translate(-2.4898628,-365.06227)"/><text xml:space="preserve" style="font-size:14.6667px;line-height:normal;font-family:&quot;Liberation Mono&quot;;-inkscape-font-specification:&quot;Liberation Mono&quot;;text-align:center;text-decoration-color:#000;white-space:pre;shape-inside:url(#q);display:inline;fill:#000;stroke-width:1;-inkscape-stroke:none;stop-color:#000" transform="translate(-2.4898628,-365.06227) matrix(0.26458333,0,0,0.26458333,-4.5291756,-23.361011)"><tspan x="164.599" y="1894.244">distributed backend</tspan></text></svg>