<svg xmlns="http://www.w3.org/2000/svg" width="417.389" height="213.237" viewBox="0 0 110.434 56.419"><defs><path id="q" d="M265.782 4923.719h73.878v33.335h-73.878z"/><path id="b" d="M30.632 3574.088h102.709v45.048H30.632z"/><path id="c" d="M34.236 3655.174h91.897v59.463H34.236z"/><path id="d" d="M21.623 1703.706h126.134v51.354H21.623z"/><path id="g" d="M34.236 3655.174h91.897v59.463H34.236z"/><path id="j" d="M121.178 3633.876h172.533v40.119H121.178z"/><path id="k" d="M133.341 3700.26h98.655v33.51h-98.655z"/><path id="m" d="M300 3697.519h234.717v59.463H300z"/><path id="a" d="M194.677 4465.182h122.009v26.19H194.677z"/><path id="p" d="M202.715 4413.778h87.393v16.668h-87.393z"/><marker id="n" markerHeight="1" markerWidth="1" orient="auto-start-reverse" preserveAspectRatio="xMidYMid" refX="0" refY="0" style="overflow:visible" viewBox="0 0 1 1"><path d="M3-3 0 0l3 3" style="fill:none;stroke:context-stroke;stroke-width:1;stroke-linecap:butt" transform="rotate(180,0.125,0)"/></marker><marker id="e" markerHeight="1" markerWidth="1" orient="auto-start-reverse" preserveAspectRatio="xMidYMid" refX="0" refY="0" style="overflow:visible" viewBox="0 0 1 1"><path d="M3-3 0 0l3 3" style="fill:none;stroke:context-stroke;stroke-width:1;stroke-linecap:butt" transform="rotate(180,0.125,0)"/></marker><marker id="f" markerHeight="1" markerWidth="1" orient="auto-start-reverse" preserveAspectRatio="xMidYMid" refX="0" refY="0" style="overflow:visible" viewBox="0 0 1 1"><path d="M3-3 0 0l3 3" style="fill:none;stroke:context-stroke;stroke-width:1;stroke-linecap:butt" transform="rotate(180,0.125,0)"/></marker><marker id="h" markerHeight="1" markerWidth="1" orient="auto-start-reverse" preserveAspectRatio="xMidYMid" refX="0" refY="0" style="overflow:visible" viewBox="0 0 1 1"><path d="M3-3 0 0l3 3" style="fill:none;stroke:context-stroke;stroke-width:1;stroke-linecap:butt" transform="rotate(180,0.125,0)"/></marker><marker id="i" markerHeight="1" markerWidth="1" orient="auto-start-reverse" preserveAspectRatio="xMidYMid" refX="0" refY="0" style="overflow:visible" viewBox="0 0 1 1"><path d="M3-3 0 0l3 3" style="fill:none;stroke:context-stroke;stroke-width:1;stroke-linecap:butt" transform="rotate(180,0.125,0)"/></marker><marker id="l" markerHeight="1" markerWidth="1" orient="auto-start-reverse" preserveAspectRatio="xMidYMid" refX="0" refY="0" style="overflow:visible" viewBox="0 0 1 1"><path d="M3-3 0 0l3 3" style="fill:none;stroke:context-stroke;stroke-width:1;stroke-linecap:butt" transform="rotate(180,0.125,0)"/></marker><marker id="o" markerHeight="1" markerWidth="1" orient="auto-start-reverse" preserveAspectRatio="xMidYMid" refX="0" refY="0" style="overflow:visible" viewBox="0 0 1 1"><path d="M3-3 0 0l3 3" style="fill:none;stroke:context-stroke;stroke-width:1;stroke-linecap:butt" transform="rotate(180,0.125,0)"/></marker></defs><path d="M19.116 1276.546h110.17v56.154H19.116z" style="fill:#fff;stroke:#fff;stroke-width:.264582;stroke-linejoin:round;stroke-dasharray:none;stroke-dashoffset:0" transform="translate(-18.984016,-1276.4133)"/><text xml:space="preserve" style="font-size:14.6667px;line-height:normal;font-family:&quot;Liberation Mono&quot;;-inkscape-font-specification:&quot;Liberation Mono&quot;;text-decoration-color:#000;white-space:pre;shape-inside:url(#a);display:inline;fill:#000;stroke-width:1;-inkscape-stroke:none;stop-color:#000" transform="translate(-18.984016,-1276.4133) matrix(0.26458333,0,0,0.26458333,11.561568,100.79184)"><tspan x="194.678" y="4478.232">html,css,js</tspan></text><path d="M24.371 1301.425h15.733v10.012H24.371z" style="fill:#afdde9;stroke:#000;stroke-width:.264583;stroke-linejoin:round" transform="translate(-18.984016,-1276.4133)"/><path d="M21.9 1283.475h24.163v10.012H21.9z" style="fill:#c6e9af;stroke:#000;stroke-width:.264583;stroke-linejoin:round" transform="translate(-18.984016,-1276.4133)"/><text xml:space="preserve" x="38.249" style="font-size:14.6667px;line-height:normal;font-family:&quot;Liberation Mono&quot;;-inkscape-font-specification:&quot;Liberation Mono&quot;;text-align:center;text-decoration-color:#000;white-space:pre;shape-inside:url(#b);display:inline;fill:#000;stroke-width:1;-inkscape-stroke:none;stop-color:#000" transform="translate(-18.984016,-1276.4133) matrix(0.26458333,0,0,0.26458333,11.665793,338.09807)"><tspan x="42.381" y="3587.138">svelteKit
</tspan><tspan x="55.583" y="3605.472">server</tspan></text><text xml:space="preserve" x="16.479" style="font-size:14.6667px;line-height:normal;font-family:&quot;Liberation Mono&quot;;-inkscape-font-specification:&quot;Liberation Mono&quot;;text-align:center;text-decoration-color:#000;white-space:pre;shape-inside:url(#c);display:inline;fill:#000;stroke-width:1;-inkscape-stroke:none;stop-color:#000" transform="translate(-18.984016,-1276.4133) matrix(0.26458333,0,0,0.26458333,10.837253,334.70771)"><tspan x="53.78" y="3668.224">hono-A
</tspan><tspan x="62.582" y="3686.557">node</tspan></text><path d="M106.273 1280.893h19.868v20.462h-19.868z" style="fill:#eed7f4;stroke:#d4aa00;stroke-width:.264583;stroke-linejoin:round" transform="translate(-18.984016,-1276.4133)"/><path d="M107.471 1282.302h17.371v12.358h-17.371z" style="fill:#fff6d5;stroke:#d4aa00;stroke-width:.264583;stroke-linejoin:round" transform="translate(-18.984016,-1276.4133)"/><text xml:space="preserve" style="font-size:14.6667px;line-height:normal;font-family:&quot;Liberation Mono&quot;;-inkscape-font-specification:&quot;Liberation Mono&quot;;text-align:center;text-decoration-color:#000;white-space:pre;shape-inside:url(#d);display:inline;fill:#000;stroke-width:1;-inkscape-stroke:none;stop-color:#000" transform="translate(-18.984016,-1276.4133) matrix(0.26458333,0,0,0.26458333,93.665416,845.17963)"><tspan x="53.884" y="1716.755">browser</tspan></text><path d="M46.196 1289.825h60.077" style="fill:#eef4d7;stroke:#f60;stroke-width:.264581;stroke-linejoin:round;stroke-dasharray:none;stroke-dashoffset:0;marker-end:url(#e)" transform="translate(-18.984016,-1276.4133)"/><path d="M106.14 1287.709H46.03" style="fill:#eef4d7;stroke:#f60;stroke-width:.264581;stroke-linejoin:round;stroke-dasharray:none;stroke-dashoffset:0;marker-end:url(#f)" transform="translate(-18.984016,-1276.4133)"/><path d="M24.371 1319.374h15.733v10.012H24.371z" style="fill:#d5d5ff;stroke:#000;stroke-width:.264583;stroke-linejoin:round" transform="translate(-18.984016,-1276.4133)"/><text xml:space="preserve" x="16.479" style="font-size:14.6667px;line-height:normal;font-family:&quot;Liberation Mono&quot;;-inkscape-font-specification:&quot;Liberation Mono&quot;;text-align:center;text-decoration-color:#000;white-space:pre;shape-inside:url(#g);display:inline;fill:#000;stroke-width:1;-inkscape-stroke:none;stop-color:#000" transform="translate(-18.984016,-1276.4133) matrix(0.26458333,0,0,0.26458333,10.837252,352.65704)"><tspan x="53.78" y="3668.224">hono-B
</tspan><tspan x="62.582" y="3686.557">node</tspan></text><path d="M30.325 1311.436v7.938" style="fill:#f60;stroke:#f60;stroke-width:.264583;stroke-linejoin:round;marker-end:url(#h)" transform="translate(-18.984016,-1276.4133)"/><path d="M33.334 1319.374v-7.938" style="fill:#f60;stroke:#f60;stroke-width:.264583;stroke-linejoin:round;marker-end:url(#i)" transform="translate(-18.984016,-1276.4133)"/><text xml:space="preserve" x="-.344" style="font-style:italic;font-variant:normal;font-weight:400;font-stretch:normal;font-size:14.6667px;line-height:normal;font-family:&quot;Liberation Mono&quot;;-inkscape-font-specification:&quot;Liberation Mono Italic&quot;;text-align:start;text-decoration-color:#000;white-space:pre;shape-inside:url(#j);display:inline;fill:#536c53;stroke-width:1;-inkscape-stroke:none;stop-color:#000" transform="translate(-18.984016,-1276.4133) matrix(0.26458333,0,0,0.26458333,8.9954882,343.23386)"><tspan x="121.178" y="3646.927">hono-A
</tspan><tspan x="121.178" y="3665.261">independant</tspan></text><text xml:space="preserve" style="font-style:italic;font-variant:normal;font-weight:400;font-stretch:normal;font-size:14.6667px;line-height:normal;font-family:&quot;Liberation Mono&quot;;-inkscape-font-specification:&quot;Liberation Mono Italic&quot;;text-decoration-color:#000;white-space:pre;shape-inside:url(#k);display:inline;fill:#536c53;stroke-width:1;-inkscape-stroke:none;stop-color:#000" transform="translate(-18.984016,-1276.4133) matrix(0.26458333,0,0,0.26458333,16.861951,342.8818)"><tspan x="133.342" y="3713.31">hono-B?</tspan></text><path d="M51.175 1324.38h-9.568" style="fill:#eef4d7;stroke:#6f916f;stroke-width:.264583;stroke-linejoin:round;stroke-dasharray:none;stroke-dashoffset:0;marker-end:url(#l)" transform="translate(-18.984016,-1276.4133)"/><text xml:space="preserve" x="218.597" style="font-size:14.6667px;line-height:normal;font-family:&quot;Liberation Mono&quot;;-inkscape-font-specification:&quot;Liberation Mono&quot;;text-align:end;text-decoration-color:#000;white-space:pre;shape-inside:url(#m);display:inline;fill:#000;stroke-width:1;-inkscape-stroke:none;stop-color:#000" transform="translate(-18.984016,-1276.4133) matrix(0.26458333,0,0,0.26458333,-14.640128,343.60745)"><tspan x="349.886" y="3710.57">Client Side Rendering
</tspan><tspan x="305.879" y="3728.903">with hono-A not integrated</tspan></text><path d="m40.167 1302.496 65.792-8.463" style="fill:#fff;stroke:#f60;stroke-width:.264583;stroke-linejoin:round;stroke-dasharray:none;stroke-dashoffset:0;marker-start:url(#n)" transform="translate(-18.984016,-1276.4133)"/><path d="m105.982 1295.936-65.793 8.463" style="fill:#fff;stroke:#f60;stroke-width:.264583;stroke-linejoin:round;stroke-dasharray:none;stroke-dashoffset:0;marker-start:url(#o)" transform="translate(-18.984016,-1276.4133)"/><text xml:space="preserve" style="font-size:14.6667px;line-height:normal;font-family:&quot;Liberation Mono&quot;;-inkscape-font-specification:&quot;Liberation Mono&quot;;text-decoration-color:#000;white-space:pre;shape-inside:url(#p);display:inline;fill:#000;stroke-width:1;-inkscape-stroke:none;stop-color:#000" transform="translate(-18.984016,-1276.4133) matrix(0.26375359,-0.02093753,0.02093753,0.26375359,-81.149962,134.43578)"><tspan x="202.715" y="4426.827">json</tspan></text><text xml:space="preserve" style="font-style:italic;font-variant:normal;font-weight:400;font-stretch:normal;font-size:14.6667px;line-height:normal;font-family:&quot;Liberation Mono&quot;;-inkscape-font-specification:&quot;Liberation Mono Italic&quot;;text-align:end;text-decoration-color:#000;white-space:pre;shape-inside:url(#q);fill:#000;stroke-width:1;-inkscape-stroke:none;stop-color:#000" transform="translate(-18.984016,-1276.4133) matrix(0.26458333,0,0,0.26458333,10.502983,-12.395639)"><tspan x="286.851" y="4936.769">[cors]</tspan></text></svg>