<svg xmlns="http://www.w3.org/2000/svg" width="415.587" height="213.237" viewBox="0 0 109.957 56.419"><defs><path id="p" d="M202.715 4413.778h87.393v16.668h-87.393z"/><path id="o" d="M194.677 4465.182h122.009v26.19H194.677z"/><path id="a" d="M30.632 3574.088h102.709v45.048H30.632z"/><path id="b" d="M34.236 3655.174h91.897v59.463H34.236z"/><path id="c" d="M21.623 1703.706h126.134v51.354H21.623z"/><path id="f" d="M34.236 3655.174h91.897v59.463H34.236z"/><path id="i" d="M121.178 3633.876h172.533v40.119H121.178z"/><path id="j" d="M133.341 3700.26h98.655v33.51h-98.655z"/><path id="l" d="M300 3697.519h269.404v88.294H300z"/><marker id="d" markerHeight="1" markerWidth="1" orient="auto-start-reverse" preserveAspectRatio="xMidYMid" refX="0" refY="0" style="overflow:visible" viewBox="0 0 1 1"><path d="M3-3 0 0l3 3" style="fill:none;stroke:context-stroke;stroke-width:1;stroke-linecap:butt" transform="rotate(180,0.125,0)"/></marker><marker id="e" markerHeight="1" markerWidth="1" orient="auto-start-reverse" preserveAspectRatio="xMidYMid" refX="0" refY="0" style="overflow:visible" viewBox="0 0 1 1"><path d="M3-3 0 0l3 3" style="fill:none;stroke:context-stroke;stroke-width:1;stroke-linecap:butt" transform="rotate(180,0.125,0)"/></marker><marker id="g" markerHeight="1" markerWidth="1" orient="auto-start-reverse" preserveAspectRatio="xMidYMid" refX="0" refY="0" style="overflow:visible" viewBox="0 0 1 1"><path d="M3-3 0 0l3 3" style="fill:none;stroke:context-stroke;stroke-width:1;stroke-linecap:butt" transform="rotate(180,0.125,0)"/></marker><marker id="h" markerHeight="1" markerWidth="1" orient="auto-start-reverse" preserveAspectRatio="xMidYMid" refX="0" refY="0" style="overflow:visible" viewBox="0 0 1 1"><path d="M3-3 0 0l3 3" style="fill:none;stroke:context-stroke;stroke-width:1;stroke-linecap:butt" transform="rotate(180,0.125,0)"/></marker><marker id="k" markerHeight="1" markerWidth="1" orient="auto-start-reverse" preserveAspectRatio="xMidYMid" refX="0" refY="0" style="overflow:visible" viewBox="0 0 1 1"><path d="M3-3 0 0l3 3" style="fill:none;stroke:context-stroke;stroke-width:1;stroke-linecap:butt" transform="rotate(180,0.125,0)"/></marker><marker id="m" markerHeight="1" markerWidth="1" orient="auto-start-reverse" preserveAspectRatio="xMidYMid" refX="0" refY="0" style="overflow:visible" viewBox="0 0 1 1"><path d="M3-3 0 0l3 3" style="fill:none;stroke:context-stroke;stroke-width:1;stroke-linecap:butt" transform="rotate(180,0.125,0)"/></marker><marker id="n" markerHeight="1" markerWidth="1" orient="auto-start-reverse" preserveAspectRatio="xMidYMid" refX="0" refY="0" style="overflow:visible" viewBox="0 0 1 1"><path d="M3-3 0 0l3 3" style="fill:none;stroke:context-stroke;stroke-width:1;stroke-linecap:butt" transform="rotate(180,0.125,0)"/></marker></defs><path d="M15.716 1181.545h109.693v56.154H15.716z" style="fill:#fff;stroke:#fff;stroke-width:.264582;stroke-linejoin:round;stroke-dasharray:none;stroke-dashoffset:0" transform="translate(-15.583639,-1181.4128)"/><path d="M18.023 1188.475h24.163v30.276H18.023z" style="fill:#c6e9af;stroke:#000;stroke-width:.264583;stroke-linejoin:round" transform="translate(-15.583639,-1181.4128)"/><path d="M22.997 1206.424H38.73v10.012H22.997z" style="fill:#afdde9;stroke:#000;stroke-width:.264583;stroke-linejoin:round" transform="translate(-15.583639,-1181.4128)"/><text xml:space="preserve" x="38.249" style="font-size:14.6667px;line-height:normal;font-family:&quot;Liberation Mono&quot;;-inkscape-font-specification:&quot;Liberation Mono&quot;;text-align:center;text-decoration-color:#000;white-space:pre;shape-inside:url(#a);display:inline;fill:#000;stroke-width:1;-inkscape-stroke:none;stop-color:#000" transform="translate(-15.583639,-1181.4128) matrix(0.26458333,0,0,0.26458333,7.7886617,243.0974)"><tspan x="42.381" y="3587.138">svelteKit
</tspan><tspan x="55.583" y="3605.472">server</tspan></text><text xml:space="preserve" x="16.479" style="font-size:14.6667px;line-height:normal;font-family:&quot;Liberation Mono&quot;;-inkscape-font-specification:&quot;Liberation Mono&quot;;text-align:center;text-decoration-color:#000;white-space:pre;shape-inside:url(#b);display:inline;fill:#000;stroke-width:1;-inkscape-stroke:none;stop-color:#000" transform="translate(-15.583639,-1181.4128) matrix(0.26458333,0,0,0.26458333,9.605957,239.70704)"><tspan x="53.78" y="3668.224">hono-A
</tspan><tspan x="62.582" y="3686.557">node</tspan></text><path d="M102.396 1185.892h19.868v20.462h-19.868z" style="fill:#eed7f4;stroke:#d4aa00;stroke-width:.264583;stroke-linejoin:round" transform="translate(-15.583639,-1181.4128)"/><path d="M103.594 1187.302h17.371v12.358h-17.371z" style="fill:#fff6d5;stroke:#d4aa00;stroke-width:.264583;stroke-linejoin:round" transform="translate(-15.583639,-1181.4128)"/><text xml:space="preserve" style="font-size:14.6667px;line-height:normal;font-family:&quot;Liberation Mono&quot;;-inkscape-font-specification:&quot;Liberation Mono&quot;;text-align:center;text-decoration-color:#000;white-space:pre;shape-inside:url(#c);display:inline;fill:#000;stroke-width:1;-inkscape-stroke:none;stop-color:#000" transform="translate(-15.583639,-1181.4128) matrix(0.26458333,0,0,0.26458333,89.78828,750.17896)"><tspan x="53.884" y="1716.755">browser</tspan></text><path d="M42.318 1192.708h60.078" style="fill:#eef4d7;stroke:#f60;stroke-width:.264581;stroke-linejoin:round;stroke-dasharray:none;stroke-dashoffset:0;marker-end:url(#d)" transform="translate(-15.583639,-1181.4128)"/><path d="M102.264 1190.591H42.152" style="fill:#eef4d7;stroke:#f60;stroke-width:.264581;stroke-linejoin:round;stroke-dasharray:none;stroke-dashoffset:0;marker-end:url(#e)" transform="translate(-15.583639,-1181.4128)"/><path d="M22.997 1224.373H38.73v10.012H22.997z" style="fill:#d5d5ff;stroke:#000;stroke-width:.264583;stroke-linejoin:round" transform="translate(-15.583639,-1181.4128)"/><text xml:space="preserve" x="16.479" style="font-size:14.6667px;line-height:normal;font-family:&quot;Liberation Mono&quot;;-inkscape-font-specification:&quot;Liberation Mono&quot;;text-align:center;text-decoration-color:#000;white-space:pre;shape-inside:url(#f);display:inline;fill:#000;stroke-width:1;-inkscape-stroke:none;stop-color:#000" transform="translate(-15.583639,-1181.4128) matrix(0.26458333,0,0,0.26458333,9.605956,257.65637)"><tspan x="53.78" y="3668.224">hono-B
</tspan><tspan x="62.582" y="3686.557">node</tspan></text><path d="M29.094 1216.436v7.937" style="fill:#f60;stroke:#f60;stroke-width:.264583;stroke-linejoin:round;marker-end:url(#g)" transform="translate(-15.583639,-1181.4128)"/><path d="M32.103 1224.373v-7.937" style="fill:#f60;stroke:#f60;stroke-width:.264583;stroke-linejoin:round;marker-end:url(#h)" transform="translate(-15.583639,-1181.4128)"/><text xml:space="preserve" style="font-style:italic;font-variant:normal;font-weight:400;font-stretch:normal;font-size:14.6667px;line-height:normal;font-family:&quot;Liberation Mono&quot;;-inkscape-font-specification:&quot;Liberation Mono Italic&quot;;text-decoration-color:#000;white-space:pre;shape-inside:url(#i);display:inline;fill:#536c53;stroke-width:1;-inkscape-stroke:none;stop-color:#000" transform="translate(-15.583639,-1181.4128) matrix(0.26458333,0,0,0.26458333,11.435365,246.20697)"><tspan x="121.178" y="3646.927">hono-A
</tspan><tspan x="121.178" y="3665.261">integrated</tspan></text><text xml:space="preserve" style="font-style:italic;font-variant:normal;font-weight:400;font-stretch:normal;font-size:14.6667px;line-height:normal;font-family:&quot;Liberation Mono&quot;;-inkscape-font-specification:&quot;Liberation Mono Italic&quot;;text-decoration-color:#000;white-space:pre;shape-inside:url(#j);display:inline;fill:#536c53;stroke-width:1;-inkscape-stroke:none;stop-color:#000" transform="translate(-15.583639,-1181.4128) matrix(0.26458333,0,0,0.26458333,15.630655,247.88113)"><tspan x="133.342" y="3713.31">hono-B?</tspan></text><path d="M49.944 1229.38h-9.568" style="fill:#eef4d7;stroke:#6f916f;stroke-width:.264583;stroke-linejoin:round;stroke-dasharray:none;stroke-dashoffset:0;marker-end:url(#k)" transform="translate(-15.583639,-1181.4128)"/><text xml:space="preserve" style="font-size:14.6667px;line-height:normal;font-family:&quot;Liberation Mono&quot;;-inkscape-font-specification:&quot;Liberation Mono&quot;;text-decoration-color:#000;white-space:pre;shape-inside:url(#l);display:inline;fill:#000;stroke-width:1;-inkscape-stroke:none;stop-color:#000" transform="translate(-15.583639,-1181.4128) matrix(0.26458333,0,0,0.26458333,-6.0024323,254.11316)"><tspan x="300" y="3710.57">Client Side Rendering</tspan></text><path d="M42.318 1202.121h60.078" style="fill:#eef4d7;stroke:#f60;stroke-width:.264581;stroke-linejoin:round;stroke-dasharray:none;stroke-dashoffset:0;marker-end:url(#m)" transform="translate(-15.583639,-1181.4128)"/><path d="M102.264 1200.005H42.152" style="fill:#eef4d7;stroke:#f60;stroke-width:.264581;stroke-linejoin:round;stroke-dasharray:none;stroke-dashoffset:0;marker-end:url(#n)" transform="translate(-15.583639,-1181.4128)"/><text xml:space="preserve" style="font-size:14.6667px;line-height:normal;font-family:&quot;Liberation Mono&quot;;-inkscape-font-specification:&quot;Liberation Mono&quot;;text-decoration-color:#000;white-space:pre;shape-inside:url(#o);display:inline;fill:#000;stroke-width:1;-inkscape-stroke:none;stop-color:#000" transform="translate(-15.583639,-1181.4128) matrix(0.26458333,0,0,0.26458333,5.3634975,3.8140427)"><tspan x="194.678" y="4478.232">html,css,js</tspan></text><text xml:space="preserve" style="font-size:14.6667px;line-height:normal;font-family:&quot;Liberation Mono&quot;;-inkscape-font-specification:&quot;Liberation Mono&quot;;text-decoration-color:#000;white-space:pre;shape-inside:url(#p);display:inline;fill:#000;stroke-width:1;-inkscape-stroke:none;stop-color:#000" transform="translate(-15.583639,-1181.4128) matrix(0.26458333,0,0,0.26458333,13.825905,27.413432)"><tspan x="202.715" y="4426.827">json</tspan></text></svg>