<svg xmlns="http://www.w3.org/2000/svg" width="415.587" height="213.237" viewBox="0 0 109.957 56.419"><defs><marker id="c" markerHeight="1" markerWidth="1" orient="auto-start-reverse" preserveAspectRatio="xMidYMid" refX="0" refY="0" style="overflow:visible" viewBox="0 0 1 1"><path d="M3-3 0 0l3 3" style="fill:none;stroke:context-stroke;stroke-width:1;stroke-linecap:butt" transform="rotate(180,0.125,0)"/></marker><marker id="d" markerHeight="1" markerWidth="1" orient="auto-start-reverse" preserveAspectRatio="xMidYMid" refX="0" refY="0" style="overflow:visible" viewBox="0 0 1 1"><path d="M3-3 0 0l3 3" style="fill:none;stroke:context-stroke;stroke-width:1;stroke-linecap:butt" transform="rotate(180,0.125,0)"/></marker><marker id="f" markerHeight="1" markerWidth="1" orient="auto-start-reverse" preserveAspectRatio="xMidYMid" refX="0" refY="0" style="overflow:visible" viewBox="0 0 1 1"><path d="M3-3 0 0l3 3" style="fill:none;stroke:context-stroke;stroke-width:1;stroke-linecap:butt" transform="rotate(180,0.125,0)"/></marker><marker id="g" markerHeight="1" markerWidth="1" orient="auto-start-reverse" preserveAspectRatio="xMidYMid" refX="0" refY="0" style="overflow:visible" viewBox="0 0 1 1"><path d="M3-3 0 0l3 3" style="fill:none;stroke:context-stroke;stroke-width:1;stroke-linecap:butt" transform="rotate(180,0.125,0)"/></marker><marker id="i" markerHeight="1" markerWidth="1" orient="auto-start-reverse" preserveAspectRatio="xMidYMid" refX="0" refY="0" style="overflow:visible" viewBox="0 0 1 1"><path d="M3-3 0 0l3 3" style="fill:none;stroke:context-stroke;stroke-width:1;stroke-linecap:butt" transform="rotate(180,0.125,0)"/></marker><marker id="j" markerHeight="1" markerWidth="1" orient="auto-start-reverse" preserveAspectRatio="xMidYMid" refX="0" refY="0" style="overflow:visible" viewBox="0 0 1 1"><path d="M3-3 0 0l3 3" style="fill:none;stroke:context-stroke;stroke-width:1;stroke-linecap:butt" transform="rotate(180,0.125,0)"/></marker><marker id="m" markerHeight="1" markerWidth="1" orient="auto-start-reverse" preserveAspectRatio="xMidYMid" refX="0" refY="0" style="overflow:visible" viewBox="0 0 1 1"><path d="M3-3 0 0l3 3" style="fill:none;stroke:context-stroke;stroke-width:1;stroke-linecap:butt" transform="rotate(180,0.125,0)"/></marker><marker id="n" markerHeight="1" markerWidth="1" orient="auto-start-reverse" preserveAspectRatio="xMidYMid" refX="0" refY="0" style="overflow:visible" viewBox="0 0 1 1"><path d="M3-3 0 0l3 3" style="fill:none;stroke:context-stroke;stroke-width:1;stroke-linecap:butt" transform="rotate(180,0.125,0)"/></marker><path id="a" d="M30.632 3574.088h102.709v45.048H30.632z"/><path id="b" d="M34.236 3655.174h91.897v59.463H34.236z"/><path id="e" d="M21.623 1703.706h126.134v51.354H21.623z"/><path id="h" d="M34.236 3655.174h91.897v59.463H34.236z"/><path id="k" d="M121.178 3633.876h172.533v40.119H121.178z"/><path id="l" d="M133.341 3700.26h98.655v33.51h-98.655z"/><path id="o" d="M300 3697.519h225.257v31.533H300z"/></defs><path d="M11.952 1097.672h109.693v56.154H11.952z" style="fill:#fff;stroke:#fff;stroke-width:.264582;stroke-linejoin:round;stroke-dasharray:none;stroke-dashoffset:0" transform="translate(-11.820098,-1097.5396)"/><path d="M14.26 1114.613h24.163v20.977H14.26z" style="fill:#eef4d7;stroke:#000;stroke-width:.264583;stroke-linejoin:round;stroke-dasharray:.529166,1.05833;stroke-dashoffset:0" transform="translate(-11.820098,-1097.5396)"/><path d="M19.114 1122.551h15.971v10.012H19.114z" style="fill:#afdde9;stroke:#000;stroke-width:.264583;stroke-linejoin:round" transform="translate(-11.820098,-1097.5396)"/><path d="M14.26 1104.601h24.163v10.012H14.26z" style="fill:#c6e9af;stroke:#000;stroke-width:.264583;stroke-linejoin:round" transform="translate(-11.820098,-1097.5396)"/><text xml:space="preserve" x="38.249" style="font-size:14.6667px;line-height:normal;font-family:&quot;Liberation Mono&quot;;-inkscape-font-specification:&quot;Liberation Mono&quot;;text-align:center;text-decoration-color:#000;white-space:pre;shape-inside:url(#a);display:inline;fill:#000;stroke-width:1;-inkscape-stroke:none;stop-color:#000" transform="translate(-11.820098,-1097.5396) matrix(0.26458333,0,0,0.26458333,4.0251188,159.22421)"><tspan x="42.381" y="3587.138">svelteKit
</tspan><tspan x="55.583" y="3605.472">server</tspan></text><text xml:space="preserve" x="16.479" style="font-size:14.6667px;line-height:normal;font-family:&quot;Liberation Mono&quot;;-inkscape-font-specification:&quot;Liberation Mono&quot;;text-align:center;text-decoration-color:#000;white-space:pre;shape-inside:url(#b);display:inline;fill:#000;stroke-width:1;-inkscape-stroke:none;stop-color:#000" transform="translate(-11.820098,-1097.5396) matrix(0.26458333,0,0,0.26458333,5.8424138,155.83385)"><tspan x="53.78" y="3668.224">hono-A
</tspan><tspan x="62.582" y="3686.557">node</tspan></text><path d="M25.33 1114.613v7.938" style="fill:#f60;stroke:#f60;stroke-width:.264583;stroke-linejoin:round;marker-end:url(#c)" transform="translate(-11.820098,-1097.5396)"/><path d="M28.34 1122.55v-7.937" style="fill:#f60;stroke:#f60;stroke-width:.264583;stroke-linejoin:round;marker-end:url(#d)" transform="translate(-11.820098,-1097.5396)"/><path d="M98.632 1102.019H118.5v20.462H98.632z" style="fill:#eed7f4;stroke:#d4aa00;stroke-width:.264583;stroke-linejoin:round" transform="translate(-11.820098,-1097.5396)"/><path d="M99.831 1103.428h17.371v12.358H99.831z" style="fill:#fff6d5;stroke:#d4aa00;stroke-width:.264583;stroke-linejoin:round" transform="translate(-11.820098,-1097.5396)"/><text xml:space="preserve" style="font-size:14.6667px;line-height:normal;font-family:&quot;Liberation Mono&quot;;-inkscape-font-specification:&quot;Liberation Mono&quot;;text-align:center;text-decoration-color:#000;white-space:pre;shape-inside:url(#e);display:inline;fill:#000;stroke-width:1;-inkscape-stroke:none;stop-color:#000" transform="translate(-11.820098,-1097.5396) matrix(0.26458333,0,0,0.26458333,86.024741,666.30577)"><tspan x="53.884" y="1716.755">browser</tspan></text><path d="M38.555 1110.951h60.077" style="fill:#eef4d7;stroke:#f60;stroke-width:.264581;stroke-linejoin:round;stroke-dasharray:none;stroke-dashoffset:0;marker-end:url(#f)" transform="translate(-11.820098,-1097.5396)"/><path d="M98.5 1108.835H38.389" style="fill:#eef4d7;stroke:#f60;stroke-width:.264581;stroke-linejoin:round;stroke-dasharray:none;stroke-dashoffset:0;marker-end:url(#g)" transform="translate(-11.820098,-1097.5396)"/><path d="M19.114 1140.5h15.971v10.012H19.114z" style="fill:#d5d5ff;stroke:#000;stroke-width:.264583;stroke-linejoin:round" transform="translate(-11.820098,-1097.5396)"/><text xml:space="preserve" x="16.479" style="font-size:14.6667px;line-height:normal;font-family:&quot;Liberation Mono&quot;;-inkscape-font-specification:&quot;Liberation Mono&quot;;text-align:center;text-decoration-color:#000;white-space:pre;shape-inside:url(#h);display:inline;fill:#000;stroke-width:1;-inkscape-stroke:none;stop-color:#000" transform="translate(-11.820098,-1097.5396) matrix(0.26458333,0,0,0.26458333,5.8424128,173.78318)"><tspan x="53.78" y="3668.224">hono-B
</tspan><tspan x="62.582" y="3686.557">node</tspan></text><path d="M25.33 1132.563v7.937" style="fill:#f60;stroke:#f60;stroke-width:.264583;stroke-linejoin:round;marker-end:url(#i)" transform="translate(-11.820098,-1097.5396)"/><path d="M28.34 1140.5v-7.938" style="fill:#f60;stroke:#f60;stroke-width:.264583;stroke-linejoin:round;marker-end:url(#j)" transform="translate(-11.820098,-1097.5396)"/><text xml:space="preserve" style="font-style:italic;font-variant:normal;font-weight:400;font-stretch:normal;font-size:14.6667px;line-height:normal;font-family:&quot;Liberation Mono&quot;;-inkscape-font-specification:&quot;Liberation Mono Italic&quot;;text-decoration-color:#000;white-space:pre;shape-inside:url(#k);display:inline;fill:#536c53;stroke-width:1;-inkscape-stroke:none;stop-color:#000" transform="translate(-11.820098,-1097.5396) matrix(0.26458333,0,0,0.26458333,15.986309,163.64486)"><tspan x="121.178" y="3646.927">hono-A-integrated?</tspan></text><text xml:space="preserve" style="font-style:italic;font-variant:normal;font-weight:400;font-stretch:normal;font-size:14.6667px;line-height:normal;font-family:&quot;Liberation Mono&quot;;-inkscape-font-specification:&quot;Liberation Mono Italic&quot;;text-decoration-color:#000;white-space:pre;shape-inside:url(#l);display:inline;fill:#536c53;stroke-width:1;-inkscape-stroke:none;stop-color:#000" transform="translate(-11.820098,-1097.5396) matrix(0.26458333,0,0,0.26458333,11.867111,164.00794)"><tspan x="133.342" y="3713.31">hono-B?</tspan></text><path d="M46.392 1127.557h-9.568" style="fill:#eef4d7;stroke:#6f916f;stroke-width:.264583;stroke-linejoin:round;stroke-dasharray:none;stroke-dashoffset:0;marker-end:url(#m)" transform="translate(-11.820098,-1097.5396)"/><path d="M46.18 1145.506h-9.567" style="fill:#eef4d7;stroke:#6f916f;stroke-width:.264583;stroke-linejoin:round;stroke-dasharray:none;stroke-dashoffset:0;marker-end:url(#n)" transform="translate(-11.820098,-1097.5396)"/><text xml:space="preserve" style="font-size:14.6667px;line-height:normal;font-family:&quot;Liberation Mono&quot;;-inkscape-font-specification:&quot;Liberation Mono&quot;;text-decoration-color:#000;white-space:pre;shape-inside:url(#o);display:inline;fill:#000;stroke-width:1;-inkscape-stroke:none;stop-color:#000" transform="translate(-11.820098,-1097.5396) matrix(0.26458333,0,0,0.26458333,-9.7659753,170.23997)"><tspan x="300" y="3710.57">Server Side Rendering</tspan></text></svg>