<svg xmlns="http://www.w3.org/2000/svg" width="448.324" height="195.961" viewBox="0 0 118.619 51.848"><defs><path id="g" d="M93.249 5135.894h146.856v32.434H93.249z"/><path id="f" d="M58.112 5309.328h286.504v38.291H58.112z"/><path id="e" d="M56.31 5268.334h184.696v49.553H56.31z"/><path id="d" d="M65.77 5221.034h199.111v51.805H65.77z"/><path id="c" d="M367.59 5140.398h90.095v39.642H367.59z"/><path id="b" d="M257.223 5138.597h81.086v32.885h-81.086z"/><path id="a" d="M108.115 5130.038H226.14v52.255H108.115z"/></defs><path d="M5.84 1364.261h118.355v51.583H5.84z" style="fill:#fff;stroke:#fff;stroke-width:.264583;stroke-linejoin:round;stroke-dasharray:none;stroke-dashoffset:0" transform="translate(-5.7079613,-1364.1284)"/><path d="M10.012 1402.257h71.156v9.773H10.012zM10.012 1382.71h71.156v9.773H10.012zM10.012 1392.483h71.156v9.773H10.012z" style="fill:#d7eef4;stroke:#999;stroke-width:.264583;stroke-linejoin:round;stroke-dasharray:none;stroke-dashoffset:0" transform="translate(-5.7079613,-1364.1284)"/><path d="M81.168 1372.936h12.918v9.773H81.168z" style="fill:#fff6d5;stroke:#999;stroke-width:.264583;stroke-linejoin:round;stroke-dasharray:none;stroke-dashoffset:0" transform="translate(-5.7079613,-1364.1284)"/><path d="M94.085 1372.936h12.918v9.773H94.085zM107.003 1372.936h12.918v9.773h-12.918z" style="fill:#fff6d5;stroke:#999;stroke-width:.264583;stroke-linejoin:round;stroke-dasharray:none;stroke-dashoffset:0" transform="translate(-5.7079613,-1364.1284)"/><path d="M81.168 1366.738h38.753v6.198H81.168z" style="fill:#fff6d5;stroke:#999;stroke-width:.264583;stroke-linejoin:round;stroke-dasharray:none;stroke-dashoffset:0" transform="translate(-5.7079613,-1364.1284)"/><text xml:space="preserve" style="font-size:14.6667px;line-height:normal;font-family:&quot;Liberation Mono&quot;;-inkscape-font-specification:&quot;Liberation Mono&quot;;text-decoration-color:#000;white-space:pre;shape-inside:url(#a);fill:#000;stroke-width:1;-inkscape-stroke:none;stop-color:#000" transform="translate(-5.7079613,-1364.1284) matrix(0.26458333,0,0,0.26458333,55.572448,18.326875)"><tspan x="108.115" y="5143.087">SSG</tspan></text><text xml:space="preserve" style="font-size:14.6667px;line-height:normal;font-family:&quot;Liberation Mono&quot;;-inkscape-font-specification:&quot;Liberation Mono&quot;;text-decoration-color:#000;white-space:pre;shape-inside:url(#b);fill:#000;stroke-width:1;-inkscape-stroke:none;stop-color:#000" transform="translate(-5.7079613,-1364.1284) matrix(0.26458333,0,0,0.26458333,28.128565,16.061897)"><tspan x="257.223" y="5151.648">SSR</tspan></text><text xml:space="preserve" style="font-size:14.6667px;line-height:normal;font-family:&quot;Liberation Mono&quot;;-inkscape-font-specification:&quot;Liberation Mono&quot;;text-decoration-color:#000;white-space:pre;shape-inside:url(#c);fill:#000;stroke-width:1;-inkscape-stroke:none;stop-color:#000" transform="translate(-5.7079613,-1364.1284) matrix(0.26458333,0,0,0.26458333,12.690893,15.585441)"><tspan x="367.59" y="5153.449">CSR</tspan></text><text xml:space="preserve" style="font-size:14.6667px;line-height:normal;font-family:&quot;Liberation Mono&quot;;-inkscape-font-specification:&quot;Liberation Mono&quot;;text-decoration-color:#000;white-space:pre;shape-inside:url(#d);fill:#000;stroke-width:1;-inkscape-stroke:none;stop-color:#000" transform="translate(-5.7079613,-1364.1284) matrix(0.26458333,0,0,0.26458333,-4.0093219,23.303547)"><tspan x="65.77" y="5234.085">hono-A independant</tspan></text><text xml:space="preserve" style="font-size:14.6667px;line-height:normal;font-family:&quot;Liberation Mono&quot;;-inkscape-font-specification:&quot;Liberation Mono&quot;;text-decoration-color:#000;white-space:pre;shape-inside:url(#e);fill:#000;stroke-width:1;-inkscape-stroke:none;stop-color:#000" transform="translate(-5.7079613,-1364.1284) matrix(0.26458333,0,0,0.26458333,-1.8967796,-8.1171731)"><tspan x="56.311" y="5281.384">hono-A integrated</tspan></text><text xml:space="preserve" style="font-size:14.6667px;line-height:normal;font-family:&quot;Liberation Mono&quot;;-inkscape-font-specification:&quot;Liberation Mono&quot;;text-decoration-color:#000;white-space:pre;shape-inside:url(#f);fill:#000;stroke-width:1;-inkscape-stroke:none;stop-color:#000" transform="translate(-5.7079613,-1364.1284) matrix(0.26458333,0,0,0.26458333,-2.4742332,-9.6542955)"><tspan x="58.111" y="5322.378">hono-A integrated and node-B</tspan></text><path d="M81.168 1382.71h12.918v9.773H81.168zM81.168 1392.483h12.918v9.773H81.168zM81.168 1402.257h12.918v9.773H81.168z" style="fill:none;stroke:#999;stroke-width:.264583;stroke-linejoin:round;stroke-dasharray:none;stroke-dashoffset:0" transform="translate(-5.7079613,-1364.1284)"/><path d="M94.085 1382.71h12.918v9.773H94.085zM94.085 1392.483h12.918v9.773H94.085zM94.085 1402.257h12.918v9.773H94.085zM107.003 1382.71h12.918v9.773h-12.918zM107.003 1392.483h12.918v9.773h-12.918zM107.003 1402.257h12.918v9.773h-12.918z" style="fill:none;stroke:#999;stroke-width:.264583;stroke-linejoin:round;stroke-dasharray:none;stroke-dashoffset:0" transform="translate(-5.7079613,-1364.1284)"/><text xml:space="preserve" x="-64.808" style="font-style:italic;font-variant:normal;font-weight:400;font-stretch:normal;font-size:14.6667px;line-height:normal;font-family:&quot;Liberation Mono&quot;;-inkscape-font-specification:&quot;Liberation Mono Italic&quot;;text-align:center;text-decoration-color:#000;white-space:pre;shape-inside:url(#g);fill:#000;stroke-width:1;-inkscape-stroke:none;stop-color:#000" transform="translate(-5.7079613,-1364.1284) matrix(0.26458333,0,0,0.26458333,56.44625,8.6934814)"><tspan x="100.666" y="5148.945">svelteKit modes</tspan></text></svg>