<svg xmlns="http://www.w3.org/2000/svg" width="499.68" height="213.238" viewBox="0 0 132.207 56.419"><defs><path id="a" d="M30.632 3574.088h102.709v45.048H30.632z"/><path id="b" d="M34.236 3655.174h91.897v59.463H34.236z"/><path id="c" d="M142.351 3568.683h145.955v83.789H142.351z"/><path id="f" d="M189.201 3656.67h76.581v74.185h-76.581z"/><path id="g" d="M192.893 3700.673h116.091v45.048H192.893z"/><path id="h" d="M21.623 1703.706h126.134v51.354H21.623z"/><path id="k" d="M34.236 3655.174h91.897v59.463H34.236z"/><path id="n" d="M121.178 3633.876h172.533v40.119H121.178z"/><path id="o" d="M133.341 3700.26h98.655v33.51h-98.655z"/><path id="r" d="M300 3697.519h225.257v31.533H300z"/><marker id="d" markerHeight="1" markerWidth="1" orient="auto-start-reverse" preserveAspectRatio="xMidYMid" refX="0" refY="0" style="overflow:visible" viewBox="0 0 1 1"><path d="M3-3 0 0l3 3" style="fill:none;stroke:context-stroke;stroke-width:1;stroke-linecap:butt" transform="rotate(180,0.125,0)"/></marker><marker id="e" markerHeight="1" markerWidth="1" orient="auto-start-reverse" preserveAspectRatio="xMidYMid" refX="0" refY="0" style="overflow:visible" viewBox="0 0 1 1"><path d="M3-3 0 0l3 3" style="fill:none;stroke:context-stroke;stroke-width:1;stroke-linecap:butt" transform="rotate(180,0.125,0)"/></marker><marker id="i" markerHeight="1" markerWidth="1" orient="auto-start-reverse" preserveAspectRatio="xMidYMid" refX="0" refY="0" style="overflow:visible" viewBox="0 0 1 1"><path d="M3-3 0 0l3 3" style="fill:none;stroke:context-stroke;stroke-width:1;stroke-linecap:butt" transform="rotate(180,0.125,0)"/></marker><marker id="j" markerHeight="1" markerWidth="1" orient="auto-start-reverse" preserveAspectRatio="xMidYMid" refX="0" refY="0" style="overflow:visible" viewBox="0 0 1 1"><path d="M3-3 0 0l3 3" style="fill:none;stroke:context-stroke;stroke-width:1;stroke-linecap:butt" transform="rotate(180,0.125,0)"/></marker><marker id="l" markerHeight="1" markerWidth="1" orient="auto-start-reverse" preserveAspectRatio="xMidYMid" refX="0" refY="0" style="overflow:visible" viewBox="0 0 1 1"><path d="M3-3 0 0l3 3" style="fill:none;stroke:context-stroke;stroke-width:1;stroke-linecap:butt" transform="rotate(180,0.125,0)"/></marker><marker id="m" markerHeight="1" markerWidth="1" orient="auto-start-reverse" preserveAspectRatio="xMidYMid" refX="0" refY="0" style="overflow:visible" viewBox="0 0 1 1"><path d="M3-3 0 0l3 3" style="fill:none;stroke:context-stroke;stroke-width:1;stroke-linecap:butt" transform="rotate(180,0.125,0)"/></marker><marker id="p" markerHeight="1" markerWidth="1" orient="auto-start-reverse" preserveAspectRatio="xMidYMid" refX="0" refY="0" style="overflow:visible" viewBox="0 0 1 1"><path d="M3-3 0 0l3 3" style="fill:none;stroke:context-stroke;stroke-width:1;stroke-linecap:butt" transform="rotate(180,0.125,0)"/></marker><marker id="q" markerHeight="1" markerWidth="1" orient="auto-start-reverse" preserveAspectRatio="xMidYMid" refX="0" refY="0" style="overflow:visible" viewBox="0 0 1 1"><path d="M3-3 0 0l3 3" style="fill:none;stroke:context-stroke;stroke-width:1;stroke-linecap:butt" transform="rotate(180,0.125,0)"/></marker></defs><path d="M5.086 1014.665h131.942v56.155H5.086z" style="fill:#fff;stroke:#fff;stroke-width:.264582;stroke-linejoin:round;stroke-dasharray:none;stroke-dashoffset:0" transform="translate(-4.9536328,-1014.5328)"/><path d="M7.393 1031.607h24.163v20.977H7.393z" style="fill:#eef4d7;stroke:#000;stroke-width:.264583;stroke-linejoin:round;stroke-dasharray:.529166,1.05833;stroke-dashoffset:0" transform="translate(-4.9536328,-1014.5328)"/><path d="M12.009 1039.544h16.448v10.012H12.009z" style="fill:#afdde9;stroke:#000;stroke-width:.264583;stroke-linejoin:round" transform="translate(-4.9536328,-1014.5328)"/><path d="M7.393 1021.595h24.163v10.012H7.393z" style="fill:#c6e9af;stroke:#000;stroke-width:.264583;stroke-linejoin:round" transform="translate(-4.9536328,-1014.5328)"/><text xml:space="preserve" x="38.249" style="font-size:14.6667px;line-height:normal;font-family:&quot;Liberation Mono&quot;;-inkscape-font-specification:&quot;Liberation Mono&quot;;text-align:center;text-decoration-color:#000;white-space:pre;shape-inside:url(#a);display:inline;fill:#000;stroke-width:1;-inkscape-stroke:none;stop-color:#000" transform="translate(-4.9536328,-1014.5328) matrix(0.26458333,0,0,0.26458333,-2.8413447,76.217532)"><tspan x="42.381" y="3587.138">svelteKit
</tspan><tspan x="55.583" y="3605.472">source</tspan></text><text xml:space="preserve" x="16.479" style="font-size:14.6667px;line-height:normal;font-family:&quot;Liberation Mono&quot;;-inkscape-font-specification:&quot;Liberation Mono&quot;;text-align:center;text-decoration-color:#000;white-space:pre;shape-inside:url(#b);display:inline;fill:#000;stroke-width:1;-inkscape-stroke:none;stop-color:#000" transform="translate(-4.9536328,-1014.5328) matrix(0.26458333,0,0,0.26458333,-1.0240497,72.827174)"><tspan x="53.78" y="3668.224">hono-A
</tspan><tspan x="62.582" y="3686.557">node</tspan></text><text xml:space="preserve" x="38.249" style="font-size:14.6667px;line-height:normal;font-family:&quot;Liberation Mono&quot;;-inkscape-font-specification:&quot;Liberation Mono&quot;;text-align:center;text-decoration-color:#000;white-space:pre;shape-inside:url(#c);display:inline;fill:#000;stroke-width:1;-inkscape-stroke:none;stop-color:#000" transform="translate(-4.9536328,-1014.5328) matrix(0.26458333,0,0,0.26458333,-11.908492,72.751263)"><tspan x="175.722" y="3581.734">svelteKit
</tspan><tspan x="193.324" y="3600.067">build</tspan></text><path d="M18.464 1031.606v7.938" style="fill:#f60;stroke:#f60;stroke-width:.264583;stroke-linejoin:round;marker-end:url(#d)" transform="translate(-4.9536328,-1014.5328)"/><path d="M21.473 1039.544v-7.938" style="fill:#f60;stroke:#f60;stroke-width:.264583;stroke-linejoin:round;marker-end:url(#e)" transform="translate(-4.9536328,-1014.5328)"/><path d="M57.457 1019.092h13.468v15.018H57.457z" style="fill:#fea;stroke:#000;stroke-width:.264583;stroke-linejoin:round" transform="translate(-4.9536328,-1014.5328)"/><path d="M31.419 1026.6h26.055" style="fill:#f60;stroke:#f60;stroke-width:.264583;stroke-linejoin:round;marker-end:url(#d)" transform="translate(-4.9536328,-1014.5328)"/><text xml:space="preserve" x="16.779" style="font-size:14.6667px;line-height:normal;font-family:&quot;Liberation Mono&quot;;-inkscape-font-specification:&quot;Liberation Mono&quot;;text-align:center;text-decoration-color:#000;white-space:pre;shape-inside:url(#f);display:inline;fill:#000;stroke-width:1;-inkscape-stroke:none;stop-color:#000" transform="translate(-4.9536328,-1014.5328) matrix(0.26458333,0,0,0.26458333,4.0661316,51.806387)"><tspan x="209.888" y="3669.72">html
</tspan><tspan x="214.289" y="3688.053">css
</tspan><tspan x="218.69" y="3706.387">js</tspan></text><path d="M78.862 1021.595h18.355v10.012H78.862z" style="fill:#d5e5ff;stroke:#000;stroke-width:.264583;stroke-linejoin:round" transform="translate(-4.9536328,-1014.5328)"/><path d="M70.925 1026.6h7.937" style="fill:#eef4d7;stroke:#f60;stroke-width:.264583;stroke-linejoin:round;stroke-dasharray:none;stroke-dashoffset:0;marker-end:url(#d)" transform="translate(-4.9536328,-1014.5328)"/><text xml:space="preserve" style="font-size:14.6667px;line-height:normal;font-family:&quot;Liberation Mono&quot;;-inkscape-font-specification:&quot;Liberation Mono&quot;;text-decoration-color:#000;white-space:pre;shape-inside:url(#g);display:inline;fill:#000;stroke-width:1;-inkscape-stroke:none;stop-color:#000" transform="translate(-4.9536328,-1014.5328) matrix(0.26458333,0,0,0.26458333,29.988064,42.973271)"><tspan x="192.893" y="3713.722">static
</tspan><tspan x="192.893" y="3732.055">server</tspan></text><path d="M113.991 1019.013h19.868v20.462h-19.868z" style="fill:#eed7f4;stroke:#d4aa00;stroke-width:.264583;stroke-linejoin:round" transform="translate(-4.9536328,-1014.5328)"/><path d="M115.189 1020.422h17.371v12.358h-17.371z" style="fill:#fff6d5;stroke:#d4aa00;stroke-width:.264583;stroke-linejoin:round" transform="translate(-4.9536328,-1014.5328)"/><text xml:space="preserve" style="font-size:14.6667px;line-height:normal;font-family:&quot;Liberation Mono&quot;;-inkscape-font-specification:&quot;Liberation Mono&quot;;text-align:center;text-decoration-color:#000;white-space:pre;shape-inside:url(#h);display:inline;fill:#000;stroke-width:1;-inkscape-stroke:none;stop-color:#000" transform="translate(-4.9536328,-1014.5328) matrix(0.26458333,0,0,0.26458333,101.38333,583.29909)"><tspan x="53.884" y="1716.755">browser</tspan></text><path d="M97.217 1027.945h16.774" style="fill:#eef4d7;stroke:#f60;stroke-width:.264582;stroke-linejoin:round;stroke-dasharray:none;stroke-dashoffset:0;marker-end:url(#i)" transform="translate(-4.9536328,-1014.5328)"/><path d="M113.99 1025.828H97.218" style="fill:#eef4d7;stroke:#f60;stroke-width:.264582;stroke-linejoin:round;stroke-dasharray:none;stroke-dashoffset:0;marker-end:url(#j)" transform="translate(-4.9536328,-1014.5328)"/><path d="M12.009 1057.494h16.448v10.012H12.009z" style="fill:#d5d5ff;stroke:#000;stroke-width:.264583;stroke-linejoin:round" transform="translate(-4.9536328,-1014.5328)"/><text xml:space="preserve" x="16.479" style="font-size:14.6667px;line-height:normal;font-family:&quot;Liberation Mono&quot;;-inkscape-font-specification:&quot;Liberation Mono&quot;;text-align:center;text-decoration-color:#000;white-space:pre;shape-inside:url(#k);display:inline;fill:#000;stroke-width:1;-inkscape-stroke:none;stop-color:#000" transform="translate(-4.9536328,-1014.5328) matrix(0.26458333,0,0,0.26458333,-1.024051,90.776497)"><tspan x="53.78" y="3668.224">hono-B
</tspan><tspan x="62.582" y="3686.557">node</tspan></text><path d="M18.464 1049.556v7.938" style="fill:#f60;stroke:#f60;stroke-width:.264583;stroke-linejoin:round;marker-end:url(#l)" transform="translate(-4.9536328,-1014.5328)"/><path d="M21.473 1057.494v-7.938" style="fill:#f60;stroke:#f60;stroke-width:.264583;stroke-linejoin:round;marker-end:url(#m)" transform="translate(-4.9536328,-1014.5328)"/><text xml:space="preserve" style="font-style:italic;font-variant:normal;font-weight:400;font-stretch:normal;font-size:14.6667px;line-height:normal;font-family:&quot;Liberation Mono&quot;;-inkscape-font-specification:&quot;Liberation Mono Italic&quot;;text-decoration-color:#000;white-space:pre;shape-inside:url(#n);display:inline;fill:#536c53;stroke-width:1;-inkscape-stroke:none;stop-color:#000" transform="translate(-4.9536328,-1014.5328) matrix(0.26458333,0,0,0.26458333,9.1198434,80.638177)"><tspan x="121.178" y="3646.927">hono-A-integrated?</tspan></text><text xml:space="preserve" style="font-style:italic;font-variant:normal;font-weight:400;font-stretch:normal;font-size:14.6667px;line-height:normal;font-family:&quot;Liberation Mono&quot;;-inkscape-font-specification:&quot;Liberation Mono Italic&quot;;text-decoration-color:#000;white-space:pre;shape-inside:url(#o);display:inline;fill:#536c53;stroke-width:1;-inkscape-stroke:none;stop-color:#000" transform="translate(-4.9536328,-1014.5328) matrix(0.26458333,0,0,0.26458333,5.5298128,81.001257)"><tspan x="133.342" y="3713.31">hono-B?</tspan></text><path d="M39.526 1044.55h-9.568" style="fill:#eef4d7;stroke:#6f916f;stroke-width:.264583;stroke-linejoin:round;stroke-dasharray:none;stroke-dashoffset:0;marker-end:url(#p)" transform="translate(-4.9536328,-1014.5328)"/><path d="M39.843 1062.5h-9.568" style="fill:#eef4d7;stroke:#6f916f;stroke-width:.264583;stroke-linejoin:round;stroke-dasharray:none;stroke-dashoffset:0;marker-end:url(#q)" transform="translate(-4.9536328,-1014.5328)"/><text xml:space="preserve" style="font-size:14.6667px;line-height:normal;font-family:&quot;Liberation Mono&quot;;-inkscape-font-specification:&quot;Liberation Mono&quot;;text-decoration-color:#000;white-space:pre;shape-inside:url(#r);display:inline;fill:#000;stroke-width:1;-inkscape-stroke:none;stop-color:#000" transform="translate(-4.9536328,-1014.5328) matrix(0.26458333,0,0,0.26458333,1.3201578,85.472867)"><tspan x="300" y="3710.57">Server Side Generation</tspan></text></svg>