<svg xmlns="http://www.w3.org/2000/svg" width="287.412" height="204.165" viewBox="0 0 76.044 54.019"><defs><path id="h" d="M479.884 192.354h124.657v51.733H479.884z"/><path id="f" d="M317.221 370.743h92.714v29.732h-92.714z"/><path id="c" d="M123.431 248.213h105.412v62.166H123.431z"/><path id="d" d="M149.468 335.606h65.41v36.038h-65.41z"/><path id="e" d="M236.05 205.868h158.568v48.129H236.05z"/><path id="a" d="M317.221 370.743h105.448v24.776H317.221z"/><marker id="g" markerHeight="1" markerWidth="1" orient="auto-start-reverse" preserveAspectRatio="xMidYMid" refX="0" refY="0" style="overflow:visible" viewBox="0 0 1 1"><path d="M3-3 0 0l3 3" style="fill:none;stroke:context-stroke;stroke-width:1;stroke-linecap:butt" transform="rotate(180,0.125,0)"/></marker><marker id="b" markerHeight="1" markerWidth="1" orient="auto-start-reverse" preserveAspectRatio="xMidYMid" refX="0" refY="0" style="overflow:visible" viewBox="0 0 1 1"><path d="M3-3 0 0l3 3" style="fill:none;stroke:context-stroke;stroke-width:1;stroke-linecap:butt" transform="rotate(180,0.125,0)"/></marker></defs><path d="M74.938 31.239h75.78v53.754h-75.78z" style="fill:#fff;stroke:#fff;stroke-width:.264584;stroke-linejoin:round;stroke-dasharray:none" transform="translate(-74.806038,-31.106806)"/><text xml:space="preserve" style="font-size:14.6667px;line-height:normal;font-family:&quot;Liberation Mono&quot;;-inkscape-font-specification:&quot;Liberation Mono&quot;;text-decoration-color:#000;white-space:pre;shape-inside:url(#a);display:inline;fill:#7f2aff;stroke-width:1;-inkscape-stroke:none;stop-color:#000" transform="translate(-74.806038,-31.106806) matrix(0.26458333,0,0,0.26458333,19.192839,-26.364196)"><tspan x="317.221" y="383.792">bigger size</tspan></text><path d="M106.087 76.443h22.17l2.622-5.733" style="fill:none;stroke:#aa00d4;stroke-width:.264583;stroke-linejoin:round;stroke-dasharray:none;marker-end:url(#b)" transform="translate(-74.806038,-31.106806)"/><path d="M78.037 33.861h22.765v15.495H78.037z" style="fill:#afdde9;stroke:#2c89a0;stroke-width:.264583;stroke-linejoin:round" transform="translate(-74.806038,-31.106806)"/><text xml:space="preserve" style="font-size:14.6667px;line-height:normal;font-family:&quot;Liberation Mono&quot;;-inkscape-font-specification:&quot;Liberation Mono&quot;;text-decoration-color:#000;white-space:pre;shape-inside:url(#c);display:inline;fill:#000;stroke-width:1;-inkscape-stroke:none;stop-color:#000" transform="translate(-74.806038,-31.106806) matrix(0.26458333,0,0,0.26458333,53.007588,-31.449173)"><tspan x="123.432" y="261.263">CPU</tspan></text><path d="M77.714 67.347h22.765v15.495H77.714z" style="fill:#afe9af;stroke:#2ca02c;stroke-width:.264583;stroke-linejoin:round" transform="translate(-74.806038,-31.106806)"/><text xml:space="preserve" style="font-size:14.6667px;line-height:normal;font-family:&quot;Liberation Mono&quot;;-inkscape-font-specification:&quot;Liberation Mono&quot;;text-decoration-color:#000;white-space:pre;shape-inside:url(#d);display:inline;fill:#000;stroke-width:1;-inkscape-stroke:none;stop-color:#000" transform="translate(-74.806038,-31.106806) matrix(0.26458333,0,0,0.26458333,45.702591,-16.164881)"><tspan x="149.467" y="348.656">RAM</tspan></text><path d="m83.804 54.647 5.292-5.291 5.292 5.291h-2.646v7.409h2.646l-5.292 5.291-5.292-5.291h2.646v-7.409z" style="fill:#fd5;stroke:#d4aa00;stroke-width:.264583;stroke-linejoin:round;stroke-dasharray:none" transform="translate(-74.806038,-31.106806)"/><text xml:space="preserve" style="font-size:14.6667px;line-height:normal;font-family:&quot;Liberation Mono&quot;;-inkscape-font-specification:&quot;Liberation Mono&quot;;text-decoration-color:#000;white-space:pre;shape-inside:url(#e);display:inline;fill:#000;stroke-width:1;-inkscape-stroke:none;stop-color:#000" transform="translate(-74.806038,-31.106806) matrix(0.26458333,0,0,0.26458333,33.937375,-0.97100648)"><tspan x="236.051" y="218.919">memory
</tspan><tspan x="236.051" y="237.253">interface</tspan></text><path d="M79.475 42.263h2.381v2.381h-2.381zM82.915 42.263h2.381v2.381h-2.381zM86.354 42.263h2.381v2.381h-2.381zM89.794 42.263h2.381v2.381h-2.381zM79.475 45.545h2.381v2.381h-2.381zM82.915 45.545h2.381v2.381h-2.381zM86.354 45.545h2.381v2.381h-2.381zM89.794 45.545h2.381v2.381h-2.381zM79.475 38.981h2.381v2.381h-2.381zM82.915 38.981h2.381v2.381h-2.381zM86.354 38.981h2.381v2.381h-2.381zM89.794 38.981h2.381v2.381h-2.381zM93.234 42.263h2.381v2.381h-2.381zM96.673 42.263h2.381v2.381h-2.381zM93.234 45.545h2.381v2.381h-2.381zM96.673 45.545h2.381v2.381h-2.381zM93.234 38.981h2.381v2.381h-2.381zM96.673 38.981h2.381v2.381h-2.381z" style="fill:#5fbcd3;stroke:#2c89a0;stroke-width:.264583;stroke-linejoin:round" transform="translate(-74.806038,-31.106806)"/><text xml:space="preserve" style="font-size:14.6667px;line-height:normal;font-family:&quot;Liberation Mono&quot;;-inkscape-font-specification:&quot;Liberation Mono&quot;;text-decoration-color:#000;white-space:pre;shape-inside:url(#f);fill:#7f2aff;stroke-width:1;-inkscape-stroke:none;stop-color:#000" transform="translate(-74.806038,-31.106806) matrix(0.26458333,0,0,0.26458333,21.586557,-60.676675)"><tspan x="317.221" y="383.792">more cores</tspan></text><path d="M107.952 42.13h22.17l2.621-5.732" style="fill:none;stroke:#aa00d4;stroke-width:.264583;stroke-linejoin:round;stroke-dasharray:none;marker-end:url(#g)" transform="translate(-74.806038,-31.106806)"/><text xml:space="preserve" style="font-size:14.6667px;line-height:normal;font-family:&quot;Liberation Mono&quot;;-inkscape-font-specification:&quot;Liberation Mono&quot;;text-decoration-color:#000;white-space:pre;shape-inside:url(#h);fill:red;stroke-width:1;-inkscape-stroke:none;stop-color:#000" transform="translate(-74.806038,-31.106806) matrix(0.26458333,0,0,0.26458333,-7.303511,2.6050026)"><tspan x="479.885" y="205.404">bandwidth
</tspan><tspan x="479.885" y="223.737">not scalable!</tspan></text></svg>