<svg xmlns="http://www.w3.org/2000/svg" width="521.718" height="347.146" viewBox="0 0 138.038 91.849"><defs><path id="n" d="M332.002 719.863h226.836v95.999H332.002z"/><path id="m" d="M402.346 841.942h121.776v99.556H402.346z"/><path id="l" d="M376.149 734.898h137.846v77.763H376.149z"/><path id="k" d="M133.792 725.719h138.297v28.347H133.792z"/><path id="a" d="M123.431 248.213h105.412v62.166H123.431z"/><path id="b" d="M149.468 335.606h65.41v36.038h-65.41z"/><path id="c" d="M236.05 205.868h158.568v48.129H236.05z"/><path id="e" d="M123.431 248.213h105.412v62.166H123.431z"/><path id="f" d="M149.468 335.606h65.41v36.038h-65.41z"/><path id="h" d="M123.431 248.213h105.412v62.166H123.431z"/><path id="i" d="M149.468 335.606h65.41v36.038h-65.41z"/><marker id="d" markerHeight="1" markerWidth="1" orient="auto-start-reverse" preserveAspectRatio="xMidYMid" refX="0" refY="0" style="overflow:visible" viewBox="0 0 1 1"><path d="M3-3 0 0l3 3" style="fill:none;stroke:context-stroke;stroke-width:1;stroke-linecap:butt" transform="rotate(180,0.125,0)"/></marker><marker id="g" markerHeight="1" markerWidth="1" orient="auto-start-reverse" preserveAspectRatio="xMidYMid" refX="0" refY="0" style="overflow:visible" viewBox="0 0 1 1"><path d="M3-3 0 0l3 3" style="fill:none;stroke:context-stroke;stroke-width:1;stroke-linecap:butt" transform="rotate(180,0.125,0)"/></marker><marker id="j" markerHeight="1" markerWidth="1" orient="auto-start-reverse" preserveAspectRatio="xMidYMid" refX="0" refY="0" style="overflow:visible" viewBox="0 0 1 1"><path d="M3-3 0 0l3 3" style="fill:none;stroke:context-stroke;stroke-width:1;stroke-linecap:butt" transform="rotate(180,0.125,0)"/></marker><marker id="o" markerHeight="1" markerWidth="1" orient="auto-start-reverse" preserveAspectRatio="xMidYMid" refX="0" refY="0" style="overflow:visible" viewBox="0 0 1 1"><path d="M3-3 0 0l3 3" style="fill:none;stroke:context-stroke;stroke-width:1;stroke-linecap:butt" transform="rotate(180,0.125,0)"/></marker></defs><g transform="translate(-11.59233,-171.32442)"><path d="M11.725 171.457h137.773v91.584H11.725z" style="fill:#fff;stroke:#fff;stroke-width:.264583;stroke-linejoin:round;stroke-dasharray:none"/><path d="M14.824 211.909h22.765v15.495H14.824z" style="fill:#afdde9;stroke:#666;stroke-width:.264583;stroke-linejoin:round"/><text xml:space="preserve" style="font-size:14.6667px;line-height:normal;font-family:&quot;Liberation Mono&quot;;-inkscape-font-specification:&quot;Liberation Mono&quot;;text-decoration-color:#000;white-space:pre;shape-inside:url(#a);display:inline;fill:#000;stroke:none;stroke-width:1;-inkscape-stroke:none;stop-color:#000" transform="matrix(0.26458333,0,0,0.26458333,-10.206126,151.3611)"><tspan x="123.432" y="261.263">CPU</tspan></text><path d="M14.5 245.395h22.765v15.495H14.5z" style="fill:#afe9af;stroke:#666;stroke-width:.264583;stroke-linejoin:round"/><text xml:space="preserve" style="font-size:14.6667px;line-height:normal;font-family:&quot;Liberation Mono&quot;;-inkscape-font-specification:&quot;Liberation Mono&quot;;text-decoration-color:#000;white-space:pre;shape-inside:url(#b);display:inline;fill:#000;stroke:none;stroke-width:1;-inkscape-stroke:none;stop-color:#000" transform="matrix(0.26458333,0,0,0.26458333,-17.511123,161.88288)"><tspan x="149.467" y="348.656">RAM</tspan></text><path d="m20.59 232.695 5.292-5.291 5.292 5.291h-2.646v7.409h2.646l-5.292 5.291-5.291-5.291h2.646v-7.409z" style="fill:#fd5;stroke:#666;stroke-width:.264583;stroke-linejoin:round;stroke-dasharray:none"/><text xml:space="preserve" style="font-size:12px;line-height:normal;font-family:&quot;Liberation Mono&quot;;-inkscape-font-specification:&quot;Liberation Mono&quot;;text-decoration-color:#000;white-space:pre;shape-inside:url(#c);display:inline;fill:#d4aa00;stroke:none;stroke-width:1;-inkscape-stroke:none;stop-color:#000" transform="matrix(0.26458333,0,0,0.26458333,-31.302268,178.14944)"><tspan x="236.051" y="216.546">memory
</tspan><tspan x="236.051" y="231.546">interface</tspan></text><path d="M26.206 199.513v12.396" style="fill:#00f;stroke:#00f;stroke-width:.79375;stroke-linejoin:round;stroke-dasharray:none;marker-end:url(#d)"/><path d="M41.293 211.909h22.765v15.495H41.293z" style="fill:#afdde9;stroke:#666;stroke-width:.264583;stroke-linejoin:round"/><text xml:space="preserve" style="font-size:14.6667px;line-height:normal;font-family:&quot;Liberation Mono&quot;;-inkscape-font-specification:&quot;Liberation Mono&quot;;text-decoration-color:#000;white-space:pre;shape-inside:url(#e);display:inline;fill:#000;stroke:none;stroke-width:1;-inkscape-stroke:none;stop-color:#000" transform="matrix(0.26458333,0,0,0.26458333,16.263106,151.36109)"><tspan x="123.432" y="261.263">CPU</tspan></text><path d="M40.969 245.395h22.765v15.495H40.969z" style="fill:#afe9af;stroke:#666;stroke-width:.264583;stroke-linejoin:round"/><text xml:space="preserve" style="font-size:14.6667px;line-height:normal;font-family:&quot;Liberation Mono&quot;;-inkscape-font-specification:&quot;Liberation Mono&quot;;text-decoration-color:#000;white-space:pre;shape-inside:url(#f);display:inline;fill:#000;stroke:none;stroke-width:1;-inkscape-stroke:none;stop-color:#000" transform="matrix(0.26458333,0,0,0.26458333,8.9581066,161.88287)"><tspan x="149.467" y="348.656">RAM</tspan></text><path d="m47.06 232.695 5.292-5.291 5.291 5.291h-2.646v7.409h2.646l-5.291 5.291-5.292-5.291h2.646v-7.409z" style="fill:#fd5;stroke:#666;stroke-width:.264583;stroke-linejoin:round;stroke-dasharray:none"/><path d="M52.675 199.513v12.396" style="fill:#00f;stroke:#00f;stroke-width:.79375;stroke-linejoin:round;stroke-dasharray:none;marker-end:url(#g)"/><path d="M25.848 199.513h26.47M52.146 199.513h26.47" style="fill:none;stroke:#00f;stroke-width:.79375;stroke-linejoin:round;stroke-dasharray:none"/><path d="M67.233 211.909h22.765v15.495H67.233z" style="fill:#afdde9;stroke:#666;stroke-width:.264583;stroke-linejoin:round"/><text xml:space="preserve" style="font-size:14.6667px;line-height:normal;font-family:&quot;Liberation Mono&quot;;-inkscape-font-specification:&quot;Liberation Mono&quot;;text-decoration-color:#000;white-space:pre;shape-inside:url(#h);display:inline;fill:#000;stroke:none;stroke-width:1;-inkscape-stroke:none;stop-color:#000" transform="matrix(0.26458333,0,0,0.26458333,42.20317,151.36108)"><tspan x="123.432" y="261.263">CPU</tspan></text><path d="M66.909 245.395h22.765v15.495H66.909z" style="fill:#afe9af;stroke:#666;stroke-width:.264583;stroke-linejoin:round"/><text xml:space="preserve" style="font-size:14.6667px;line-height:normal;font-family:&quot;Liberation Mono&quot;;-inkscape-font-specification:&quot;Liberation Mono&quot;;text-decoration-color:#000;white-space:pre;shape-inside:url(#i);display:inline;fill:#000;stroke:none;stroke-width:1;-inkscape-stroke:none;stop-color:#000" transform="matrix(0.26458333,0,0,0.26458333,34.898171,161.88286)"><tspan x="149.467" y="348.656">RAM</tspan></text><path d="m73 232.695 5.292-5.291 5.291 5.291h-2.645v7.409h2.645l-5.291 5.291L73 240.104h2.646v-7.409z" style="fill:#fd5;stroke:#666;stroke-width:.264583;stroke-linejoin:round;stroke-dasharray:none"/><path d="M78.615 199.513v12.396" style="fill:#00f;stroke:#00f;stroke-width:.79375;stroke-linejoin:round;stroke-dasharray:none;marker-end:url(#j)"/><text xml:space="preserve" style="font-size:14.6667px;line-height:normal;font-family:&quot;Liberation Mono&quot;;-inkscape-font-specification:&quot;Liberation Mono&quot;;text-decoration-color:#000;white-space:pre;shape-inside:url(#k);display:inline;fill:#00f;stroke-width:1;-inkscape-stroke:none;stop-color:#000" transform="matrix(0.26458333,0,0,0.26458333,7.479753,1.7878324)"><tspan x="133.791" y="738.769">Ethernet</tspan></text><text xml:space="preserve" x="42.915" style="font-size:14.6667px;line-height:normal;font-family:&quot;Liberation Mono&quot;;-inkscape-font-specification:&quot;Liberation Mono&quot;;text-align:center;text-decoration-color:#000;white-space:pre;shape-inside:url(#l);display:inline;fill:#000;stroke-width:1;-inkscape-stroke:none;stop-color:#000" transform="matrix(0.26458333,0,0,0.26458333,-38.039881,-19.301823)"><tspan x="409.865" y="747.949">scalable
</tspan><tspan x="401.064" y="766.282">processing
</tspan><tspan x="409.865" y="784.615">capacity</tspan></text><text xml:space="preserve" x="56.096" style="font-size:14.6667px;line-height:normal;font-family:&quot;Liberation Mono&quot;;-inkscape-font-specification:&quot;Liberation Mono&quot;;text-align:center;text-decoration-color:#000;white-space:pre;shape-inside:url(#m);display:inline;fill:#000;stroke-width:1;-inkscape-stroke:none;stop-color:#000" transform="matrix(0.26458333,0,0,0.26458333,0.49343251,-49.165592)"><tspan x="428.028" y="854.992">software
</tspan><tspan x="406.024" y="873.325">must be split
</tspan><tspan x="410.425" y="891.658">into several
</tspan><tspan x="432.428" y="909.992">process</tspan></text><path d="M94.464 182.685h10.965" style="fill:#d4aa00;stroke:#f0f;stroke-width:.264583;stroke-linejoin:round;stroke-dasharray:none;marker-end:url(#d)"/><text xml:space="preserve" x="91.577" style="font-size:14.6667px;line-height:normal;font-family:&quot;Liberation Mono&quot;;-inkscape-font-specification:&quot;Liberation Mono&quot;;text-align:center;text-decoration-color:#000;white-space:pre;shape-inside:url(#n);display:inline;fill:#000;stroke-width:1;-inkscape-stroke:none;stop-color:#000" transform="matrix(0.26458333,0,0,0.26458333,6.2035157,32.034377)"><tspan x="397.012" y="732.913">bottlenecks
</tspan><tspan x="392.611" y="751.247">mitigated by
</tspan><tspan x="353.005" y="769.58">software architecture</tspan></text><ellipse cx="203.896" cy="-78.708" rx="1.669" ry="3.576" style="fill:none;stroke:#f60;stroke-width:.264583;stroke-linejoin:round;stroke-dasharray:none" transform="rotate(90)"/><path d="m110.148 223.362-26.161-19.234" style="fill:none;stroke:#f60;stroke-width:.264583;stroke-linejoin:round;stroke-dasharray:none;marker-end:url(#d)"/><ellipse cx="236.065" cy="-78.373" rx="1.979" ry="5.767" style="fill:none;stroke:#f60;stroke-width:.264583;stroke-linejoin:round;stroke-dasharray:none" transform="rotate(90)"/><path d="m109.852 225.06-24.476 10.601" style="fill:none;stroke:#f60;stroke-width:.264583;stroke-linejoin:round;stroke-dasharray:none;marker-end:url(#o)"/></g></svg>