<svg xmlns="http://www.w3.org/2000/svg" width="179.389" height="204.165" viewBox="0 0 47.463 54.019"><defs><path id="c" d="M236.05 205.868h158.568v48.129H236.05z"/><path id="b" d="M149.468 335.606h65.41v36.038h-65.41z"/><path id="a" d="M123.431 248.213h105.412v62.166H123.431z"/></defs><path d="M28.605 31.227h47.199v53.754H28.605z" style="fill:#fff;stroke:#fff;stroke-width:.264583;stroke-linejoin:round;stroke-dasharray:none" transform="translate(-28.473028,-31.095181)"/><path d="M31.704 33.85h22.765v15.495H31.704z" style="fill:#afdde9;stroke:#2c89a0;stroke-width:.264583;stroke-linejoin:round" transform="translate(-28.473028,-31.095181)"/><text xml:space="preserve" style="font-size:14.6667px;line-height:normal;font-family:&quot;Liberation Mono&quot;;-inkscape-font-specification:&quot;Liberation Mono&quot;;text-decoration-color:#000;white-space:pre;shape-inside:url(#a);fill:#000;stroke-width:1;-inkscape-stroke:none;stop-color:#000" transform="translate(-28.473028,-31.095181) matrix(0.26458333,0,0,0.26458333,6.6745743,-26.698298)"><tspan x="123.432" y="261.263">CPU</tspan></text><path d="M31.381 67.336h22.765v15.495H31.381z" style="fill:#afe9af;stroke:#2ca02c;stroke-width:.264583;stroke-linejoin:round" transform="translate(-28.473028,-31.095181)"/><text xml:space="preserve" style="font-size:14.6667px;line-height:normal;font-family:&quot;Liberation Mono&quot;;-inkscape-font-specification:&quot;Liberation Mono&quot;;text-decoration-color:#000;white-space:pre;shape-inside:url(#b);fill:#000;stroke-width:1;-inkscape-stroke:none;stop-color:#000" transform="translate(-28.473028,-31.095181) matrix(0.26458333,0,0,0.26458333,-0.63042214,-16.176509)"><tspan x="149.467" y="348.656">RAM</tspan></text><path d="m37.471 54.636 5.292-5.292 5.292 5.292h-2.646v7.408h2.646l-5.292 5.292-5.292-5.292h2.646v-7.408z" style="fill:#fd5;stroke:#d4aa00;stroke-width:.264583;stroke-linejoin:round;stroke-dasharray:none" transform="translate(-28.473028,-31.095181)"/><text xml:space="preserve" style="font-size:14.6667px;line-height:normal;font-family:&quot;Liberation Mono&quot;;-inkscape-font-specification:&quot;Liberation Mono&quot;;text-decoration-color:#000;white-space:pre;shape-inside:url(#c);fill:#000;stroke-width:1;-inkscape-stroke:none;stop-color:#000" transform="translate(-28.473028,-31.095181) matrix(0.26458333,0,0,0.26458333,-12.395638,-0.9826334)"><tspan x="236.051" y="218.919">memory
</tspan><tspan x="236.051" y="237.253">interface</tspan></text></svg>