<svg xmlns="http://www.w3.org/2000/svg" width="413.637" height="198.309" viewBox="0 0 109.442 52.469"><defs><path id="g" d="M318.938 2259.595H481.11v77.482H318.938z"/><path id="f" d="M124.332 2261.397h142.351v100.006H124.332z"/><path id="e" d="M101.808 2317.256h158.568v57.661H101.808z"/><path id="d" d="M72.977 2187.519h190.101v72.977H72.977z"/><path id="c" d="M273.89 2144.273h128.837v64.869H273.89z"/><path id="b" d="M326.146 1980.299h131.539v82.888H326.146z"/><path id="a" d="M154.063 1982.101h124.332v72.076H154.063z"/></defs><path d="M13.111 515.372h109.177v52.205H13.111z" style="fill:#fff;stroke:#fff;stroke-width:.264583;stroke-linejoin:round" transform="translate(-12.978479,-515.24017)"/><text xml:space="preserve" style="font-style:normal;font-variant:normal;font-weight:700;font-stretch:normal;font-size:14.6667px;line-height:normal;font-family:&quot;Liberation Mono&quot;;-inkscape-font-specification:&quot;Liberation Mono Bold&quot;;text-align:center;text-decoration-color:#000;white-space:pre;shape-inside:url(#a);fill:#000;stroke-width:1;-inkscape-stroke:none;stop-color:#000" transform="translate(-12.978479,-515.24017) matrix(0.26458333,0,0,0.26458333,8.9958338,13.758336)"><tspan x="203.026" y="1994.963">SSR</tspan></text><text xml:space="preserve" style="font-style:normal;font-variant:normal;font-weight:700;font-stretch:normal;font-size:14.6667px;line-height:normal;font-family:&quot;Liberation Mono&quot;;-inkscape-font-specification:&quot;Liberation Mono Bold&quot;;text-align:center;text-decoration-color:#000;white-space:pre;shape-inside:url(#b);fill:#000;stroke-width:1;-inkscape-stroke:none;stop-color:#000" transform="translate(-12.978479,-515.24017) matrix(0.26458333,0,0,0.26458333,-2.6458334,14.287503)"><tspan x="378.714" y="1993.16">CSR</tspan></text><text xml:space="preserve" style="font-style:normal;font-variant:normal;font-weight:700;font-stretch:normal;font-size:14.6667px;line-height:normal;font-family:&quot;Liberation Mono&quot;;-inkscape-font-specification:&quot;Liberation Mono Bold&quot;;text-align:center;text-decoration-color:#000;white-space:pre;shape-inside:url(#c);fill:#000;stroke-width:1;-inkscape-stroke:none;stop-color:#000" transform="translate(-12.978479,-515.24017) matrix(0.26458333,0,0,0.26458333,-22.760802,-15.366044)"><tspan x="325.106" y="2157.134">SSG</tspan></text><text xml:space="preserve" style="font-size:14.6667px;line-height:normal;font-family:&quot;Liberation Mono&quot;;-inkscape-font-specification:&quot;Liberation Mono&quot;;text-align:center;text-decoration-color:#000;white-space:pre;shape-inside:url(#d);fill:#000;stroke-width:1;-inkscape-stroke:none;stop-color:#000" transform="translate(-12.978479,-515.24017) matrix(0.26458333,0,0,0.26458333,-10.336432,-26.517382)"><tspan x="124.02" y="2200.57">build time</tspan></text><text xml:space="preserve" style="font-size:14.6667px;line-height:normal;font-family:&quot;Liberation Mono&quot;;-inkscape-font-specification:&quot;Liberation Mono&quot;;text-align:center;text-decoration-color:#000;white-space:pre;shape-inside:url(#e);fill:#000;stroke-width:1;-inkscape-stroke:none;stop-color:#000" transform="translate(-12.978479,-515.24017) matrix(0.26458333,0,0,0.26458333,-12.057488,-74.069461)"><tspan x="145.886" y="2330.306">run time</tspan></text><text xml:space="preserve" style="font-size:14.6667px;line-height:normal;font-family:&quot;Liberation Mono&quot;;-inkscape-font-specification:&quot;Liberation Mono&quot;;text-align:center;text-decoration-color:#000;white-space:pre;shape-inside:url(#f);fill:#000;stroke-width:1;-inkscape-stroke:none;stop-color:#000" transform="translate(-12.978479,-515.24017) matrix(0.26458333,0,0,0.26458333,14.98401,-73.406739)"><tspan x="147.1" y="2274.447">server side</tspan></text><text xml:space="preserve" style="font-size:14.6667px;line-height:normal;font-family:&quot;Liberation Mono&quot;;-inkscape-font-specification:&quot;Liberation Mono&quot;;text-align:center;text-decoration-color:#000;white-space:pre;shape-inside:url(#g);fill:#000;stroke-width:1;-inkscape-stroke:none;stop-color:#000" transform="translate(-12.978479,-515.24017) matrix(0.26458333,0,0,0.26458333,-4.5004433,-72.877572)"><tspan x="351.615" y="2272.646">client side</tspan></text><path d="M50.979 520.445h33.373v13.588H50.979zM84.352 520.445h33.373v13.588H84.352z" style="fill:none;stroke:gray;stroke-width:.264583;stroke-linejoin:round" transform="translate(-12.978479,-515.24017)"/><path d="M50.979 534.032h33.373v13.588H50.979zM84.352 534.032h33.373v13.588H84.352zM50.979 547.62h33.373v13.588H50.979zM84.352 547.62h33.373v13.588H84.352zM17.606 534.032h33.373v13.588H17.606zM17.606 547.62h33.373v13.588H17.606z" style="fill:none;stroke:gray;stroke-width:.264583;stroke-linejoin:round" transform="translate(-12.978479,-515.24017)"/></svg>