<svg xmlns="http://www.w3.org/2000/svg" width="464.992" height="345.165" viewBox="0 0 123.029 91.325"><defs><path id="b" d="M230.644 2301.039h99.105v47.751h-99.105z"/><path id="c" d="M181.993 2251.486h193.705v41.444H181.993z"/><path id="e" d="M231.545 2362.304h154.964v71.175H231.545z"/><path id="f" d="M253.168 2418.163h144.153v37.84H253.168z"/><path id="g" d="M21.623 1703.706h126.134v51.354H21.623z"/><path id="i" d="M158.568 2564.118h243.258v57.661H158.568z"/><path id="j" d="M440.567 2449.697h193.705v59.463H440.567z"/><path id="l" d="M129.738 3113.7H254.07v35.137H129.738z"/><path id="n" d="M158.568 2564.118h243.258v57.661H158.568z"/><path id="o" d="M440.567 2449.697h193.705v59.463H440.567z"/><path id="q" d="M158.568 2564.118h243.258v57.661H158.568z"/><path id="r" d="M440.567 2449.697h193.705v59.463H440.567z"/><marker id="a" markerHeight="1" markerWidth="1" orient="auto-start-reverse" preserveAspectRatio="xMidYMid" refX="0" refY="0" style="overflow:visible" viewBox="0 0 1 1"><path d="M3-3 0 0l3 3" style="fill:none;stroke:context-stroke;stroke-width:1;stroke-linecap:butt" transform="rotate(180,0.125,0)"/></marker><marker id="d" markerHeight="1" markerWidth="1" orient="auto-start-reverse" preserveAspectRatio="xMidYMid" refX="0" refY="0" style="overflow:visible" viewBox="0 0 1 1"><path d="M3-3 0 0l3 3" style="fill:none;stroke:context-stroke;stroke-width:1;stroke-linecap:butt" transform="rotate(180,0.125,0)"/></marker><marker id="h" markerHeight="1" markerWidth="1" orient="auto-start-reverse" preserveAspectRatio="xMidYMid" refX="0" refY="0" style="overflow:visible" viewBox="0 0 1 1"><path d="M3-3 0 0l3 3" style="fill:none;stroke:context-stroke;stroke-width:1;stroke-linecap:butt" transform="rotate(180,0.125,0)"/></marker><marker id="k" markerHeight="1" markerWidth="1" orient="auto-start-reverse" preserveAspectRatio="xMidYMid" refX="0" refY="0" style="overflow:visible" viewBox="0 0 1 1"><path d="M3-3 0 0l3 3" style="fill:none;stroke:context-stroke;stroke-width:1;stroke-linecap:butt" transform="rotate(180,0.125,0)"/></marker><marker id="m" markerHeight="1" markerWidth="1" orient="auto-start-reverse" preserveAspectRatio="xMidYMid" refX="0" refY="0" style="overflow:visible" viewBox="0 0 1 1"><path d="M3-3 0 0l3 3" style="fill:none;stroke:context-stroke;stroke-width:1;stroke-linecap:butt" transform="rotate(180,0.125,0)"/></marker><marker id="p" markerHeight="1" markerWidth="1" orient="auto-start-reverse" preserveAspectRatio="xMidYMid" refX="0" refY="0" style="overflow:visible" viewBox="0 0 1 1"><path d="M3-3 0 0l3 3" style="fill:none;stroke:context-stroke;stroke-width:1;stroke-linecap:butt" transform="rotate(180,0.125,0)"/></marker></defs><path d="M29.553 823.005h122.764v91.06H29.553z" style="fill:#fff;stroke:#fff;stroke-width:.264583;stroke-linejoin:round" transform="translate(-29.421159,-822.87274)"/><path d="M56.49 831.587v76.757" style="fill:#fff;stroke:green;stroke-width:.529167;stroke-linejoin:round;marker-end:url(#a)" transform="translate(-29.421159,-822.87274)"/><text xml:space="preserve" style="font-style:normal;font-variant:normal;font-weight:700;font-stretch:normal;font-size:14.6667px;line-height:normal;font-family:&quot;Liberation Mono&quot;;-inkscape-font-specification:&quot;Liberation Mono Bold&quot;;text-align:center;text-decoration-color:#000;white-space:pre;shape-inside:url(#b);display:inline;fill:#000;stroke-width:1;-inkscape-stroke:none;stop-color:#000" transform="translate(-29.421159,-822.87274) matrix(0.26458333,0,0,0.26458333,12.151879,214.9037)"><tspan x="266.995" y="2313.9">CSR</tspan></text><text xml:space="preserve" x="-20.46" style="font-size:14.6667px;line-height:normal;font-family:&quot;Liberation Mono&quot;;-inkscape-font-specification:&quot;Liberation Mono&quot;;text-align:start;text-decoration-color:#000;white-space:pre;shape-inside:url(#c);display:inline;fill:#a40;stroke-width:1;-inkscape-stroke:none;stop-color:#000" transform="translate(-29.421159,-822.87274) matrix(0.26458333,0,0,0.26458333,70.52208,283.06263)"><tspan x="181.992" y="2264.536">generate
</tspan><tspan x="181.992" y="2282.87">productA.html</tspan></text><path d="M56.49 831.587v13.69" style="fill:#fff;stroke:#00f;stroke-width:.529167;stroke-linejoin:round;marker-end:url(#d)" transform="translate(-29.421159,-822.87274)"/><text xml:space="preserve" style="font-size:14.6667px;line-height:normal;font-family:&quot;Liberation Mono&quot;;-inkscape-font-specification:&quot;Liberation Mono&quot;;text-align:center;text-decoration-color:#000;white-space:pre;shape-inside:url(#e);display:inline;fill:#00f;stroke-width:1;-inkscape-stroke:none;stop-color:#000" transform="translate(-29.421159,-822.87274) matrix(0.26458333,0,0,0.26458333,-38.994496,210.58922)"><tspan x="265.02" y="2375.355">build time</tspan></text><text xml:space="preserve" style="font-size:14.6667px;line-height:normal;font-family:&quot;Liberation Mono&quot;;-inkscape-font-specification:&quot;Liberation Mono&quot;;text-align:center;text-decoration-color:#000;white-space:pre;shape-inside:url(#f);display:inline;fill:green;stroke-width:1;-inkscape-stroke:none;stop-color:#000" transform="translate(-29.421159,-822.87274) matrix(0.26458333,0,0,0.26458333,-41.244718,207.17584)"><tspan x="290.038" y="2431.214">run time</tspan></text><path d="M113.944 831.415h19.868v20.462h-19.868z" style="fill:#eed7f4;stroke:#d4aa00;stroke-width:.264583;stroke-linejoin:round" transform="translate(-29.421159,-822.87274)"/><path d="M115.143 832.825h17.371v12.358h-17.371z" style="fill:#fff6d5;stroke:#d4aa00;stroke-width:.264583;stroke-linejoin:round" transform="translate(-29.421159,-822.87274)"/><text xml:space="preserve" style="font-size:14.6667px;line-height:normal;font-family:&quot;Liberation Mono&quot;;-inkscape-font-specification:&quot;Liberation Mono&quot;;text-align:center;text-decoration-color:#000;white-space:pre;shape-inside:url(#g);display:inline;fill:#000;stroke-width:1;-inkscape-stroke:none;stop-color:#000" transform="translate(-29.421159,-822.87274) matrix(0.26458333,0,0,0.26458333,101.33669,395.70191)"><tspan x="53.884" y="1716.755">browser</tspan></text><path d="M113.944 851.878v56.533" style="fill:#fff;stroke:purple;stroke-width:.529167;stroke-linejoin:round;marker-end:url(#h)" transform="translate(-29.421159,-822.87274)"/><path d="M112.27 835.44 59.59 853.556" style="fill:#fff;stroke:#f60;stroke-width:.264583;stroke-linejoin:round;marker-end:url(#a)" transform="translate(-29.421159,-822.87274)"/><text xml:space="preserve" style="font-size:14.6667px;line-height:normal;font-family:&quot;Liberation Mono&quot;;-inkscape-font-specification:&quot;Liberation Mono&quot;;text-align:center;text-decoration-color:#000;white-space:pre;shape-inside:url(#i);display:inline;fill:#000;stroke-width:1;-inkscape-stroke:none;stop-color:#000" transform="translate(-29.421159,-822.87274) matrix(0.25199439,-0.08064221,0.08064221,0.25199439,-193.5031,216.05883)"><tspan x="205.385" y="2577.167">GET productA.html</tspan></text><path d="m59.827 856.417 51.49 3.337" style="fill:#fff;stroke:#f60;stroke-width:.264583;stroke-linejoin:round;marker-end:url(#a)" transform="translate(-29.421159,-822.87274)"/><text xml:space="preserve" style="font-size:14.6667px;line-height:normal;font-family:&quot;Liberation Mono&quot;;-inkscape-font-specification:&quot;Liberation Mono&quot;;text-align:center;text-decoration-color:#000;white-space:pre;shape-inside:url(#j);display:inline;fill:#000;stroke-width:1;-inkscape-stroke:none;stop-color:#000" transform="translate(-29.421159,-822.87274) matrix(0.26410997,0.01581963,-0.01581963,0.26410997,-14.247723,197.35068)"><tspan x="480.209" y="2462.747">productX.html</tspan></text><path d="M116.404 878.027v10.687" style="fill:#fff;stroke:#d45500;stroke-width:.529167;stroke-linejoin:round;marker-end:url(#k)" transform="translate(-29.421159,-822.87274)"/><text xml:space="preserve" style="font-size:14.6667px;line-height:normal;font-family:&quot;Liberation Mono&quot;;-inkscape-font-specification:&quot;Liberation Mono&quot;;text-align:center;text-decoration-color:#000;white-space:pre;shape-inside:url(#l);display:inline;fill:#000;stroke-width:1;-inkscape-stroke:none;stop-color:#000" transform="translate(-29.421159,-822.87274) matrix(0.26458333,0,0,0.26458333,5.1215054,3.2684296)"><tspan x="165.499" y="3126.749">server</tspan></text><path d="m111.836 861.865-51.611 9.098" style="fill:#fff;stroke:#f60;stroke-width:.264583;stroke-linejoin:round;marker-end:url(#m)" transform="translate(-29.421159,-822.87274)"/><text xml:space="preserve" style="font-size:14.6667px;line-height:normal;font-family:&quot;Liberation Mono&quot;;-inkscape-font-specification:&quot;Liberation Mono&quot;;text-align:center;text-decoration-color:#000;white-space:pre;shape-inside:url(#n);display:inline;fill:#000;stroke-width:1;-inkscape-stroke:none;stop-color:#000" transform="translate(-29.421159,-822.87274) matrix(0.26189986,-0.03758723,0.03758723,0.26189986,-83.262002,200.23984)"><tspan x="205.385" y="2577.167">GET productA.json</tspan></text><path d="m60.593 874.617 51.49 3.337" style="fill:#fff;stroke:#f60;stroke-width:.264583;stroke-linejoin:round;marker-end:url(#m)" transform="translate(-29.421159,-822.87274)"/><text xml:space="preserve" style="font-size:14.6667px;line-height:normal;font-family:&quot;Liberation Mono&quot;;-inkscape-font-specification:&quot;Liberation Mono&quot;;text-align:center;text-decoration-color:#000;white-space:pre;shape-inside:url(#o);display:inline;fill:#000;stroke-width:1;-inkscape-stroke:none;stop-color:#000" transform="translate(-29.421159,-822.87274) matrix(0.26410997,0.01581963,-0.01581963,0.26410997,-13.482222,215.55042)"><tspan x="480.209" y="2462.747">productA.json</tspan></text><path d="m111.923 888.858-51.61 9.098" style="fill:#fff;stroke:#f60;stroke-width:.264583;stroke-linejoin:round;marker-end:url(#p)" transform="translate(-29.421159,-822.87274)"/><text xml:space="preserve" style="font-size:14.6667px;line-height:normal;font-family:&quot;Liberation Mono&quot;;-inkscape-font-specification:&quot;Liberation Mono&quot;;text-align:center;text-decoration-color:#000;white-space:pre;shape-inside:url(#q);display:inline;fill:#000;stroke-width:1;-inkscape-stroke:none;stop-color:#000" transform="translate(-29.421159,-822.87274) matrix(0.26189986,-0.03758723,0.03758723,0.26189986,-83.174277,227.23249)"><tspan x="209.786" y="2577.167">GET productA.jpg</tspan></text><path d="m60.68 901.61 51.49 3.336" style="fill:#fff;stroke:#f60;stroke-width:.264583;stroke-linejoin:round;marker-end:url(#p)" transform="translate(-29.421159,-822.87274)"/><text xml:space="preserve" style="font-size:14.6667px;line-height:normal;font-family:&quot;Liberation Mono&quot;;-inkscape-font-specification:&quot;Liberation Mono&quot;;text-align:center;text-decoration-color:#000;white-space:pre;shape-inside:url(#r);display:inline;fill:#000;stroke-width:1;-inkscape-stroke:none;stop-color:#000" transform="translate(-29.421159,-822.87274) matrix(0.26410997,0.01581963,-0.01581963,0.26410997,-13.394497,242.54307)"><tspan x="484.61" y="2462.747">productA.jpg</tspan></text></svg>