<svg xmlns="http://www.w3.org/2000/svg" width="419.043" height="345.165" viewBox="0 0 110.872 91.325"><defs><path id="j" d="M440.567 2449.697h193.705v59.463H440.567z"/><path id="i" d="M158.568 2564.118h243.258v57.661H158.568z"/><path id="f" d="M253.168 2418.163h144.153v37.84H253.168z"/><path id="e" d="M231.545 2362.304h154.964v71.175H231.545z"/><path id="c" d="M181.993 2251.486h193.705v41.444H181.993z"/><path id="b" d="M230.644 2301.039h99.105v47.751h-99.105z"/><path id="g" d="M21.623 1703.706h126.134v51.354H21.623z"/><path id="l" d="M158.568 2564.118h243.258v57.661H158.568z"/><path id="m" d="M440.567 2449.697h193.705v59.463H440.567z"/><path id="n" d="M129.738 3113.7H254.07v35.137H129.738z"/><marker id="a" markerHeight="1" markerWidth="1" orient="auto-start-reverse" preserveAspectRatio="xMidYMid" refX="0" refY="0" style="overflow:visible" viewBox="0 0 1 1"><path d="M3-3 0 0l3 3" style="fill:none;stroke:context-stroke;stroke-width:1;stroke-linecap:butt" transform="rotate(180,0.125,0)"/></marker><marker id="d" markerHeight="1" markerWidth="1" orient="auto-start-reverse" preserveAspectRatio="xMidYMid" refX="0" refY="0" style="overflow:visible" viewBox="0 0 1 1"><path d="M3-3 0 0l3 3" style="fill:none;stroke:context-stroke;stroke-width:1;stroke-linecap:butt" transform="rotate(180,0.125,0)"/></marker><marker id="h" markerHeight="1" markerWidth="1" orient="auto-start-reverse" preserveAspectRatio="xMidYMid" refX="0" refY="0" style="overflow:visible" viewBox="0 0 1 1"><path d="M3-3 0 0l3 3" style="fill:none;stroke:context-stroke;stroke-width:1;stroke-linecap:butt" transform="rotate(180,0.125,0)"/></marker><marker id="k" markerHeight="1" markerWidth="1" orient="auto-start-reverse" preserveAspectRatio="xMidYMid" refX="0" refY="0" style="overflow:visible" viewBox="0 0 1 1"><path d="M3-3 0 0l3 3" style="fill:none;stroke:context-stroke;stroke-width:1;stroke-linecap:butt" transform="rotate(180,0.125,0)"/></marker><marker id="o" markerHeight="1" markerWidth="1" orient="auto-start-reverse" preserveAspectRatio="xMidYMid" refX="0" refY="0" style="overflow:visible" viewBox="0 0 1 1"><path d="M3-3 0 0l3 3" style="fill:none;stroke:context-stroke;stroke-width:1;stroke-linecap:butt" transform="rotate(180,0.125,0)"/></marker></defs><path d="M9.535 582.595h110.607v91.06H9.535z" style="fill:#fff;stroke:#fff;stroke-width:.264583;stroke-linejoin:round" transform="translate(-9.4028156,-582.46271)"/><path d="M38.856 591.177v76.757" style="fill:#fff;stroke:green;stroke-width:.529167;stroke-linejoin:round;marker-end:url(#a)" transform="translate(-9.4028156,-582.46271)"/><text xml:space="preserve" style="font-style:normal;font-variant:normal;font-weight:700;font-stretch:normal;font-size:14.6667px;line-height:normal;font-family:&quot;Liberation Mono&quot;;-inkscape-font-specification:&quot;Liberation Mono Bold&quot;;text-align:center;text-decoration-color:#000;white-space:pre;shape-inside:url(#b);display:inline;fill:#000;stroke-width:1;-inkscape-stroke:none;stop-color:#000" transform="translate(-9.4028156,-582.46271) matrix(0.26458333,0,0,0.26458333,-7.8664634,-25.268033)"><tspan x="266.995" y="2313.9">SSG</tspan></text><text xml:space="preserve" x="-20.718" style="font-size:14.6667px;line-height:normal;font-family:&quot;Liberation Mono&quot;;-inkscape-font-specification:&quot;Liberation Mono&quot;;text-align:start;text-decoration-color:#000;white-space:pre;shape-inside:url(#c);display:inline;fill:#a40;stroke-width:1;-inkscape-stroke:none;stop-color:#000" transform="translate(-9.4028156,-582.46271) matrix(0.26458333,0,0,0.26458333,-5.6841467,-2.0385578)"><tspan x="181.992" y="2264.536">generate
</tspan><tspan x="181.992" y="2282.87">productA.html</tspan></text><path d="M38.856 591.177v17.163" style="fill:#fff;stroke:#00f;stroke-width:.529167;stroke-linejoin:round;marker-end:url(#d)" transform="translate(-9.4028156,-582.46271)"/><text xml:space="preserve" style="font-size:14.6667px;line-height:normal;font-family:&quot;Liberation Mono&quot;;-inkscape-font-specification:&quot;Liberation Mono&quot;;text-align:center;text-decoration-color:#000;white-space:pre;shape-inside:url(#e);display:inline;fill:#00f;stroke-width:1;-inkscape-stroke:none;stop-color:#000" transform="translate(-9.4028156,-582.46271) matrix(0.26458333,0,0,0.26458333,-57.687396,-27.175054)"><tspan x="265.02" y="2375.355">build time</tspan></text><text xml:space="preserve" style="font-size:14.6667px;line-height:normal;font-family:&quot;Liberation Mono&quot;;-inkscape-font-specification:&quot;Liberation Mono&quot;;text-align:center;text-decoration-color:#000;white-space:pre;shape-inside:url(#f);display:inline;fill:green;stroke-width:1;-inkscape-stroke:none;stop-color:#000" transform="translate(-9.4028156,-582.46271) matrix(0.26458333,0,0,0.26458333,-58.879284,-27.413432)"><tspan x="290.038" y="2431.214">run time</tspan></text><path d="M96.31 591.005h19.868v20.462H96.31z" style="fill:#eed7f4;stroke:#d4aa00;stroke-width:.264583;stroke-linejoin:round" transform="translate(-9.4028156,-582.46271)"/><path d="M97.508 592.414h17.371v12.358H97.508z" style="fill:#fff6d5;stroke:#d4aa00;stroke-width:.264583;stroke-linejoin:round" transform="translate(-9.4028156,-582.46271)"/><text xml:space="preserve" style="font-size:14.6667px;line-height:normal;font-family:&quot;Liberation Mono&quot;;-inkscape-font-specification:&quot;Liberation Mono&quot;;text-align:center;text-decoration-color:#000;white-space:pre;shape-inside:url(#g);display:inline;fill:#000;stroke-width:1;-inkscape-stroke:none;stop-color:#000" transform="translate(-9.4028156,-582.46271) matrix(0.26458333,0,0,0.26458333,83.702115,155.2918)"><tspan x="53.884" y="1716.755">browser</tspan></text><path d="M96.31 611.468V668" style="fill:#fff;stroke:purple;stroke-width:.529167;stroke-linejoin:round;marker-end:url(#h)" transform="translate(-9.4028156,-582.46271)"/><path d="m94.636 606.671-52.682 18.117" style="fill:#fff;stroke:#f60;stroke-width:.264583;stroke-linejoin:round;marker-end:url(#a)" transform="translate(-9.4028156,-582.46271)"/><text xml:space="preserve" style="font-size:14.6667px;line-height:normal;font-family:&quot;Liberation Mono&quot;;-inkscape-font-specification:&quot;Liberation Mono&quot;;text-align:center;text-decoration-color:#000;white-space:pre;shape-inside:url(#i);display:inline;fill:#000;stroke-width:1;-inkscape-stroke:none;stop-color:#000" transform="translate(-9.4028156,-582.46271) matrix(0.25199439,-0.08064221,0.08064221,0.25199439,-211.13768,-12.709592)"><tspan x="205.385" y="2577.167">GET productA.html</tspan></text><path d="m42.193 627.648 51.49 3.338" style="fill:#fff;stroke:#f60;stroke-width:.264583;stroke-linejoin:round;marker-end:url(#a)" transform="translate(-9.4028156,-582.46271)"/><text xml:space="preserve" style="font-size:14.6667px;line-height:normal;font-family:&quot;Liberation Mono&quot;;-inkscape-font-specification:&quot;Liberation Mono&quot;;text-align:center;text-decoration-color:#000;white-space:pre;shape-inside:url(#j);display:inline;fill:#000;stroke-width:1;-inkscape-stroke:none;stop-color:#000" transform="translate(-9.4028156,-582.46271) matrix(0.26410997,0.01581963,-0.01581963,0.26410997,-31.882289,-31.417687)"><tspan x="480.209" y="2462.747">productA.html</tspan></text><path d="m94.92 637.008-52.682 18.117" style="fill:#fff;stroke:#f60;stroke-width:.264583;stroke-linejoin:round;marker-end:url(#k)" transform="translate(-9.4028156,-582.46271)"/><text xml:space="preserve" style="font-size:14.6667px;line-height:normal;font-family:&quot;Liberation Mono&quot;;-inkscape-font-specification:&quot;Liberation Mono&quot;;text-align:center;text-decoration-color:#000;white-space:pre;shape-inside:url(#l);display:inline;fill:#000;stroke-width:1;-inkscape-stroke:none;stop-color:#000" transform="translate(-9.4028156,-582.46271) matrix(0.25199439,-0.08064221,0.08064221,0.25199439,-210.85403,17.627317)"><tspan x="209.786" y="2577.167">GET productA.jpg</tspan></text><path d="m42.477 657.985 51.49 3.338" style="fill:#fff;stroke:#f60;stroke-width:.264583;stroke-linejoin:round;marker-end:url(#k)" transform="translate(-9.4028156,-582.46271)"/><text xml:space="preserve" style="font-size:14.6667px;line-height:normal;font-family:&quot;Liberation Mono&quot;;-inkscape-font-specification:&quot;Liberation Mono&quot;;text-align:center;text-decoration-color:#000;white-space:pre;shape-inside:url(#m);display:inline;fill:#000;stroke-width:1;-inkscape-stroke:none;stop-color:#000" transform="translate(-9.4028156,-582.46271) matrix(0.26410997,0.01581963,-0.01581963,0.26410997,-31.598636,-1.0807783)"><tspan x="484.61" y="2462.747">productA.jpg</tspan></text><text xml:space="preserve" style="font-size:14.6667px;line-height:normal;font-family:&quot;Liberation Mono&quot;;-inkscape-font-specification:&quot;Liberation Mono&quot;;text-align:center;text-decoration-color:#000;white-space:pre;shape-inside:url(#n);display:inline;fill:#000;stroke-width:1;-inkscape-stroke:none;stop-color:#000" transform="translate(-9.4028156,-582.46271) matrix(0.26458333,0,0,0.26458333,-11.497782,-238.31906)"><tspan x="165.499" y="3126.749">server</tspan></text><path d="M41.251 594.183v10.687" style="fill:#fff;stroke:#d45500;stroke-width:.529167;stroke-linejoin:round;marker-end:url(#o)" transform="translate(-9.4028156,-582.46271)"/></svg>