<svg xmlns="http://www.w3.org/2000/svg" width="441.567" height="345.165" viewBox="0 0 116.831 91.325"><defs><path id="o" d="M129.738 3113.7H254.07v35.137H129.738z"/><path id="b" d="M230.644 2301.039h99.105v47.751h-99.105z"/><path id="c" d="M181.993 2251.486h193.705v41.444H181.993z"/><path id="e" d="M231.545 2362.304h154.964v71.175H231.545z"/><path id="f" d="M253.168 2418.163h144.153v37.84H253.168z"/><path id="g" d="M21.623 1703.706h126.134v51.354H21.623z"/><path id="i" d="M158.568 2564.118h243.258v57.661H158.568z"/><path id="j" d="M440.567 2449.697h193.705v59.463H440.567z"/><path id="l" d="M158.568 2564.118h243.258v57.661H158.568z"/><path id="m" d="M440.567 2449.697h193.705v59.463H440.567z"/><marker id="a" markerHeight="1" markerWidth="1" orient="auto-start-reverse" preserveAspectRatio="xMidYMid" refX="0" refY="0" style="overflow:visible" viewBox="0 0 1 1"><path d="M3-3 0 0l3 3" style="fill:none;stroke:context-stroke;stroke-width:1;stroke-linecap:butt" transform="rotate(180,0.125,0)"/></marker><marker id="d" markerHeight="1" markerWidth="1" orient="auto-start-reverse" preserveAspectRatio="xMidYMid" refX="0" refY="0" style="overflow:visible" viewBox="0 0 1 1"><path d="M3-3 0 0l3 3" style="fill:none;stroke:context-stroke;stroke-width:1;stroke-linecap:butt" transform="rotate(180,0.125,0)"/></marker><marker id="h" markerHeight="1" markerWidth="1" orient="auto-start-reverse" preserveAspectRatio="xMidYMid" refX="0" refY="0" style="overflow:visible" viewBox="0 0 1 1"><path d="M3-3 0 0l3 3" style="fill:none;stroke:context-stroke;stroke-width:1;stroke-linecap:butt" transform="rotate(180,0.125,0)"/></marker><marker id="k" markerHeight="1" markerWidth="1" orient="auto-start-reverse" preserveAspectRatio="xMidYMid" refX="0" refY="0" style="overflow:visible" viewBox="0 0 1 1"><path d="M3-3 0 0l3 3" style="fill:none;stroke:context-stroke;stroke-width:1;stroke-linecap:butt" transform="rotate(180,0.125,0)"/></marker><marker id="n" markerHeight="1" markerWidth="1" orient="auto-start-reverse" preserveAspectRatio="xMidYMid" refX="0" refY="0" style="overflow:visible" viewBox="0 0 1 1"><path d="M3-3 0 0l3 3" style="fill:none;stroke:context-stroke;stroke-width:1;stroke-linecap:butt" transform="rotate(180,0.125,0)"/></marker></defs><path d="M8.937 697.449h116.567v91.06H8.937z" style="fill:#fff;stroke:#fff;stroke-width:.264583;stroke-linejoin:round" transform="translate(-8.8051067,-697.31659)"/><path d="M44.217 706.03v76.758" style="fill:#fff;stroke:green;stroke-width:.529167;stroke-linejoin:round;marker-end:url(#a)" transform="translate(-8.8051067,-697.31659)"/><text xml:space="preserve" style="font-style:normal;font-variant:normal;font-weight:700;font-stretch:normal;font-size:14.6667px;line-height:normal;font-family:&quot;Liberation Mono&quot;;-inkscape-font-specification:&quot;Liberation Mono Bold&quot;;text-align:center;text-decoration-color:#000;white-space:pre;shape-inside:url(#b);display:inline;fill:#000;stroke-width:1;-inkscape-stroke:none;stop-color:#000" transform="translate(-8.8051067,-697.31659) matrix(0.26458333,0,0,0.26458333,-4.1733761,89.585902)"><tspan x="266.995" y="2313.9">SSR</tspan></text><text xml:space="preserve" x="91.867" style="font-size:14.6667px;line-height:normal;font-family:&quot;Liberation Mono&quot;;-inkscape-font-specification:&quot;Liberation Mono&quot;;text-align:end;text-decoration-color:#000;white-space:pre;shape-inside:url(#c);display:inline;fill:#a40;stroke-width:1;-inkscape-stroke:none;stop-color:#000" transform="translate(-8.8051067,-697.31659) matrix(0.26458333,0,0,0.26458333,-58.079057,133.19194)"><tspan x="305.286" y="2264.536">generate
</tspan><tspan x="261.278" y="2282.87">productA.html</tspan></text><path d="M44.217 706.03v13.69" style="fill:#fff;stroke:#00f;stroke-width:.529167;stroke-linejoin:round;marker-end:url(#d)" transform="translate(-8.8051067,-697.31659)"/><text xml:space="preserve" style="font-size:14.6667px;line-height:normal;font-family:&quot;Liberation Mono&quot;;-inkscape-font-specification:&quot;Liberation Mono&quot;;text-align:center;text-decoration-color:#000;white-space:pre;shape-inside:url(#e);display:inline;fill:#00f;stroke-width:1;-inkscape-stroke:none;stop-color:#000" transform="translate(-8.8051067,-697.31659) matrix(0.26458333,0,0,0.26458333,-51.267331,85.033052)"><tspan x="265.02" y="2375.355">build time</tspan></text><text xml:space="preserve" style="font-size:14.6667px;line-height:normal;font-family:&quot;Liberation Mono&quot;;-inkscape-font-specification:&quot;Liberation Mono&quot;;text-align:center;text-decoration-color:#000;white-space:pre;shape-inside:url(#f);display:inline;fill:green;stroke-width:1;-inkscape-stroke:none;stop-color:#000" transform="translate(-8.8051067,-697.31659) matrix(0.26458333,0,0,0.26458333,-53.517553,81.61967)"><tspan x="290.038" y="2431.214">run time</tspan></text><path d="M101.671 705.859h19.868v20.462h-19.868z" style="fill:#eed7f4;stroke:#d4aa00;stroke-width:.264583;stroke-linejoin:round" transform="translate(-8.8051067,-697.31659)"/><path d="M102.87 707.268h17.371v12.358H102.87z" style="fill:#fff6d5;stroke:#d4aa00;stroke-width:.264583;stroke-linejoin:round" transform="translate(-8.8051067,-697.31659)"/><text xml:space="preserve" style="font-size:14.6667px;line-height:normal;font-family:&quot;Liberation Mono&quot;;-inkscape-font-specification:&quot;Liberation Mono&quot;;text-align:center;text-decoration-color:#000;white-space:pre;shape-inside:url(#g);display:inline;fill:#000;stroke-width:1;-inkscape-stroke:none;stop-color:#000" transform="translate(-8.8051067,-697.31659) matrix(0.26458333,0,0,0.26458333,89.063846,270.14574)"><tspan x="53.884" y="1716.755">browser</tspan></text><path d="M101.671 726.322v56.533" style="fill:#fff;stroke:purple;stroke-width:.529167;stroke-linejoin:round;marker-end:url(#h)" transform="translate(-8.8051067,-697.31659)"/><path d="M99.998 709.883 47.316 728" style="fill:#fff;stroke:#f60;stroke-width:.264583;stroke-linejoin:round;marker-end:url(#a)" transform="translate(-8.8051067,-697.31659)"/><text xml:space="preserve" style="font-size:14.6667px;line-height:normal;font-family:&quot;Liberation Mono&quot;;-inkscape-font-specification:&quot;Liberation Mono&quot;;text-align:center;text-decoration-color:#000;white-space:pre;shape-inside:url(#i);display:inline;fill:#000;stroke-width:1;-inkscape-stroke:none;stop-color:#000" transform="translate(-8.8051067,-697.31659) matrix(0.25199439,-0.08064221,0.08064221,0.25199439,-205.77594,90.502664)"><tspan x="205.385" y="2577.167">GET productA.html</tspan></text><path d="m47.555 742.502 51.49 3.338" style="fill:#fff;stroke:#f60;stroke-width:.264583;stroke-linejoin:round;marker-end:url(#a)" transform="translate(-8.8051067,-697.31659)"/><text xml:space="preserve" style="font-size:14.6667px;line-height:normal;font-family:&quot;Liberation Mono&quot;;-inkscape-font-specification:&quot;Liberation Mono&quot;;text-align:center;text-decoration-color:#000;white-space:pre;shape-inside:url(#j);display:inline;fill:#000;stroke-width:1;-inkscape-stroke:none;stop-color:#000" transform="translate(-8.8051067,-697.31659) matrix(0.26410997,0.01581963,-0.01581963,0.26410997,-26.520558,83.436247)"><tspan x="480.209" y="2462.747">productA.html</tspan></text><path d="M100.281 751.862 47.6 769.979" style="fill:#fff;stroke:#f60;stroke-width:.264583;stroke-linejoin:round;marker-end:url(#k)" transform="translate(-8.8051067,-697.31659)"/><text xml:space="preserve" style="font-size:14.6667px;line-height:normal;font-family:&quot;Liberation Mono&quot;;-inkscape-font-specification:&quot;Liberation Mono&quot;;text-align:center;text-decoration-color:#000;white-space:pre;shape-inside:url(#l);display:inline;fill:#000;stroke-width:1;-inkscape-stroke:none;stop-color:#000" transform="translate(-8.8051067,-697.31659) matrix(0.25199439,-0.08064221,0.08064221,0.25199439,-205.49229,132.48126)"><tspan x="209.786" y="2577.167">GET productA.jpg</tspan></text><path d="m47.838 772.84 51.49 3.337" style="fill:#fff;stroke:#f60;stroke-width:.264583;stroke-linejoin:round;marker-end:url(#k)" transform="translate(-8.8051067,-697.31659)"/><text xml:space="preserve" style="font-size:14.6667px;line-height:normal;font-family:&quot;Liberation Mono&quot;;-inkscape-font-specification:&quot;Liberation Mono&quot;;text-align:center;text-decoration-color:#000;white-space:pre;shape-inside:url(#m);display:inline;fill:#000;stroke-width:1;-inkscape-stroke:none;stop-color:#000" transform="translate(-8.8051067,-697.31659) matrix(0.26410997,0.01581963,-0.01581963,0.26410997,-26.236905,113.77316)"><tspan x="484.61" y="2462.747">productA.jpg</tspan></text><path d="M42.63 728.633v10.687" style="fill:#fff;stroke:#d45500;stroke-width:.529167;stroke-linejoin:round;marker-end:url(#n)" transform="translate(-8.8051067,-697.31659)"/><text xml:space="preserve" style="font-size:14.6667px;line-height:normal;font-family:&quot;Liberation Mono&quot;;-inkscape-font-specification:&quot;Liberation Mono&quot;;text-align:center;text-decoration-color:#000;white-space:pre;shape-inside:url(#o);display:inline;fill:#000;stroke-width:1;-inkscape-stroke:none;stop-color:#000" transform="translate(-8.8051067,-697.31659) matrix(0.26458333,0,0,0.26458333,-6.1978193,-123.00288)"><tspan x="165.499" y="3126.749">server</tspan></text></svg>