<svg xmlns="http://www.w3.org/2000/svg" width="508.97" height="77.672" viewBox="0 0 134.665 20.551"><defs><path id="e" d="M445.054 5656.557h56.321v28.031h-56.321z"/><path id="d" d="M428.833 5575.346h93.566v60.824h-93.566z"/><path id="c" d="M300 5582.178h89.567v38.702H300z"/><path id="b" d="M154.171 5566.092h99.383v38.861h-99.383z"/><path id="a" d="M85.368 5540.609h112.11v36.313H85.368z"/></defs><path d="M5.84 1443.336h134.4v20.286H5.84z" style="fill:#fff;stroke:#fff;stroke-width:.264583;stroke-linejoin:round" transform="translate(-5.7079612,-1443.2043)"/><path d="M85.274 1446.092v14.496l4.045-7.247z" style="fill:#cdde87;stroke:#cdde87;stroke-width:.264583;stroke-linejoin:round" transform="translate(-5.7079612,-1443.2043)"/><path d="M7.788 1449.548H50.77v7.585H7.788zM50.77 1446.092v14.496l4.046-7.248z" style="fill:#87deaa;stroke:#87deaa;stroke-width:.264583;stroke-linejoin:round" transform="translate(-5.7079612,-1443.2043)"/><text xml:space="preserve" style="font-size:14.6667px;line-height:normal;font-family:&quot;Liberation Mono&quot;;-inkscape-font-specification:&quot;Liberation Mono&quot;;text-align:center;text-decoration-color:#000;white-space:pre;shape-inside:url(#a);fill:#000;stroke-width:1;-inkscape-stroke:none;stop-color:#000" transform="translate(-5.7079612,-1443.2043) matrix(0.26458333,0,0,0.26458333,-8.0680922,-15.062381)"><tspan x="93.014" y="5553.659">development</tspan></text><path d="M54.816 1449.548h16.856v7.585H54.816z" style="fill:#ffd5f6;stroke:#ffd5f6;stroke-width:.264583;stroke-linejoin:round" transform="translate(-5.7079612,-1443.2043)"/><text xml:space="preserve" style="font-size:14.6667px;line-height:normal;font-family:&quot;Liberation Mono&quot;;-inkscape-font-specification:&quot;Liberation Mono&quot;;text-align:center;text-decoration-color:#000;white-space:pre;shape-inside:url(#b);fill:#000;stroke-width:1;-inkscape-stroke:none;stop-color:#000" transform="translate(-5.7079612,-1443.2043) matrix(0.26458333,0,0,0.26458333,8.8188399,-21.803615)"><tspan x="177.459" y="5579.142">config</tspan></text><path d="M70.085 1446.093v14.495l4.045-7.247z" style="fill:#ffd5f6;stroke:#ffd5f6;stroke-width:.264583;stroke-linejoin:round" transform="translate(-5.7079612,-1443.2043)"/><path d="M74.13 1449.548h12.731v7.585H74.13z" style="fill:#cdde87;stroke:#cdde87;stroke-width:.264583;stroke-linejoin:round" transform="translate(-5.7079612,-1443.2043)"/><text xml:space="preserve" style="font-size:14.6667px;line-height:normal;font-family:&quot;Liberation Mono&quot;;-inkscape-font-specification:&quot;Liberation Mono&quot;;text-align:center;text-decoration-color:#000;white-space:pre;shape-inside:url(#c);fill:#000;stroke-width:1;-inkscape-stroke:none;stop-color:#000" transform="translate(-5.7079612,-1443.2043) matrix(0.26458333,0,0,0.26458333,-10.938834,-25.68262)"><tspan x="322.78" y="5595.228">build</tspan></text><path d="M100.463 1446.093v14.496l4.045-7.248z" style="fill:#fea;stroke:#fea;stroke-width:.264583;stroke-linejoin:round" transform="translate(-5.7079612,-1443.2043)"/><path d="M89.319 1449.548h12.731v7.585H89.319z" style="fill:#fea;stroke:#fea;stroke-width:.264583;stroke-linejoin:round" transform="translate(-5.7079612,-1443.2043)"/><text xml:space="preserve" style="font-size:14.6667px;line-height:normal;font-family:&quot;Liberation Mono&quot;;-inkscape-font-specification:&quot;Liberation Mono&quot;;text-align:center;text-decoration-color:#000;white-space:pre;shape-inside:url(#d);fill:#000;stroke-width:1;-inkscape-stroke:none;stop-color:#000" transform="translate(-5.7079612,-1443.2043) matrix(0.26458333,0,0,0.26458333,-29.897845,-23.982982)"><tspan x="458.012" y="5588.396">test</tspan></text><path d="M104.508 1449.548h29.329v7.585h-29.329zM133.837 1446.093v14.496l4.046-7.248z" style="fill:#80e5ff;stroke:#80e5ff;stroke-width:.264583;stroke-linejoin:round" transform="translate(-5.7079612,-1443.2043)"/><text xml:space="preserve" style="font-size:14.6667px;line-height:normal;font-family:&quot;Liberation Mono&quot;;-inkscape-font-specification:&quot;Liberation Mono&quot;;text-align:center;text-decoration-color:#000;white-space:pre;shape-inside:url(#e);fill:#000;stroke-width:1;-inkscape-stroke:none;stop-color:#000" transform="translate(-5.7079612,-1443.2043) matrix(0.26458333,0,0,0.26458333,-6.6510531,-45.71814)"><tspan x="460.013" y="5669.607">run</tspan></text></svg>