<svg xmlns="http://www.w3.org/2000/svg" width="501.101" height="236.716" viewBox="0 0 132.583 62.631"><defs><path id="h" d="M382.88 1228.911h220.427v115.947H382.88z"/><path id="f" d="M99.383 1266.498h240.176v78.997H99.383z"/><path id="d" d="M335.737 1167.115h222.338v63.707H335.737z"/><path id="c" d="M89.19 1167.752h173.92v58.611H89.19z"/><path id="a" d="M180.291 1100.859h325.543v54.151H180.291z"/><marker id="g" markerHeight="1" markerWidth="1" orient="auto-start-reverse" preserveAspectRatio="xMidYMid" refX="0" refY="0" style="overflow:visible" viewBox="0 0 1 1"><path d="M3-3 0 0l3 3" style="fill:none;stroke:context-stroke;stroke-width:1;stroke-linecap:butt" transform="rotate(180,0.125,0)"/></marker><marker id="b" markerHeight="1" markerWidth="1" orient="auto-start-reverse" preserveAspectRatio="xMidYMid" refX="0" refY="0" style="overflow:visible" viewBox="0 0 1 1"><path d="M3-3 0 0l3 3" style="fill:none;stroke:context-stroke;stroke-width:1;stroke-linecap:butt" transform="rotate(180,0.125,0)"/></marker><marker id="e" markerHeight="1" markerWidth="1" orient="auto-start-reverse" preserveAspectRatio="xMidYMid" refX="0" refY="0" style="overflow:visible" viewBox="0 0 1 1"><path d="M3-3 0 0l3 3" style="fill:none;stroke:context-stroke;stroke-width:1;stroke-linecap:butt" transform="rotate(180,0.125,0)"/></marker><marker id="i" markerHeight="1" markerWidth="1" orient="auto-start-reverse" preserveAspectRatio="xMidYMid" refX="0" refY="0" style="overflow:visible" viewBox="0 0 1 1"><path d="M3-3 0 0l3 3" style="fill:none;stroke:context-stroke;stroke-width:1;stroke-linecap:butt" transform="rotate(180,0.125,0)"/></marker></defs><path d="M17.362 285.201H149.68v62.367H17.362z" style="fill:#fff;stroke:#fff;stroke-width:.264583;stroke-linejoin:round" transform="translate(-17.229229,-285.06866)"/><text xml:space="preserve" style="font-size:14.6667px;line-height:normal;font-family:&quot;Liberation Mono&quot;;-inkscape-font-specification:&quot;Liberation Mono&quot;;text-align:center;text-decoration-color:#000;white-space:pre;shape-inside:url(#a);fill:#000;stroke-width:1;-inkscape-stroke:none;stop-color:#000" transform="translate(-17.229229,-285.06866) matrix(0.26458333,0,0,0.26458333,-8.4279231,-2.6969354)"><tspan x="307.857" y="1113.909">software
</tspan><tspan x="184.636" y="1132.243">[demanding more processing capacity]</tspan></text><path d="m101.73 299.804 5.26 6.387" style="fill:none;stroke:#f60;stroke-width:.264583;stroke-linejoin:round;stroke-dasharray:none;marker-end:url(#b)" transform="translate(-17.229229,-285.06866)"/><text xml:space="preserve" style="font-size:14.6667px;line-height:normal;font-family:&quot;Liberation Mono&quot;;-inkscape-font-specification:&quot;Liberation Mono&quot;;text-align:center;text-decoration-color:#000;white-space:pre;shape-inside:url(#c);fill:#000;stroke-width:1;-inkscape-stroke:none;stop-color:#000" transform="translate(-17.229229,-285.06866) scale(0.26458333)"><tspan x="105.739" y="1180.802">chaotic software
</tspan><tspan x="96.937" y="1199.135">(e.g: web service)</tspan></text><text xml:space="preserve" style="font-size:14.6667px;line-height:normal;font-family:&quot;Liberation Mono&quot;;-inkscape-font-specification:&quot;Liberation Mono&quot;;text-align:center;text-decoration-color:#000;white-space:pre;shape-inside:url(#d);fill:#000;stroke-width:1;-inkscape-stroke:none;stop-color:#000" transform="translate(-17.229229,-285.06866) scale(0.26458333)"><tspan x="376.494" y="1180.165">regular software
</tspan><tspan x="345.689" y="1198.499">(e.g: video processing)</tspan></text><path d="m64.083 299.923-5.26 6.387" style="fill:none;stroke:#f60;stroke-width:.264583;stroke-linejoin:round;stroke-dasharray:none;marker-end:url(#e)" transform="translate(-17.229229,-285.06866)"/><text xml:space="preserve" style="font-size:14.6667px;line-height:normal;font-family:&quot;Liberation Mono&quot;;-inkscape-font-specification:&quot;Liberation Mono&quot;;text-align:center;text-decoration-color:#000;white-space:pre;shape-inside:url(#f);fill:#000;stroke-width:1;-inkscape-stroke:none;stop-color:#000" transform="translate(-17.229229,-285.06866) matrix(0.26458333,0,0,0.26458333,-9.8192541,-5.2253123)"><tspan x="135.857" y="1279.548"><tspan style="font-weight:700;-inkscape-font-specification:&quot;Liberation Mono Bold&quot;">distributed process
</tspan></tspan><tspan x="109.453" y="1298.071"><tspan style="font-style:italic;-inkscape-font-specification:&quot;Liberation Mono Italic&quot;">Message Queue,ROS2,nodejs
</tspan></tspan><tspan x="166.662" y="1316.404">array of RPi</tspan></text><path d="M48.545 319.924v8.934" style="fill:#fff;stroke:#f60;stroke-width:.264583;stroke-linejoin:round;marker-end:url(#g)" transform="translate(-17.229229,-285.06866)"/><text xml:space="preserve" x="66.194" style="font-size:14.6667px;line-height:normal;font-family:&quot;Liberation Mono&quot;;-inkscape-font-specification:&quot;Liberation Mono&quot;;text-align:center;text-decoration-color:#000;white-space:pre;shape-inside:url(#h);fill:#000;stroke-width:1;-inkscape-stroke:none;stop-color:#000" transform="translate(-17.229229,-285.06866) matrix(0.26458333,0,0,0.26458333,-11.967651,3.3711692)"><tspan x="409.479" y="1241.96"><tspan style="font-weight:700;-inkscape-font-specification:&quot;Liberation Mono Bold&quot;">pipeline processing</tspan>
</tspan><tspan x="422.681" y="1260.483"><tspan style="font-style:italic;-inkscape-font-specification:&quot;Liberation Mono Italic&quot;">neuronal network</tspan>
</tspan><tspan x="418.28" y="1278.816">GPU,DSP,FPGA,ASIC</tspan></text><path d="M118.883 318.413v8.934" style="fill:#fff;stroke:#f60;stroke-width:.264583;stroke-linejoin:round;marker-end:url(#i)" transform="translate(-17.229229,-285.06866)"/></svg>